<svg width="35" height="35" viewBox="0 0 35 35" fill="none" xmlns="http://www.w3.org/2000/svg">
<path d="M17.306 7.6V14.7824M17.306 1V4.49412M4.49405 17.3062H0.999932M17.306 30.5057V33.9998M17.306 20.0233V27.2057M30.1176 17.3062H20.0235M14.5882 17.3062H4.88233M19.6856 9.55569C23.1744 10.5133 25.7377 13.7074 25.7377 17.5003C25.7377 21.2932 23.1744 24.4873 19.6856 25.4449M15.3146 9.55569C11.8258 10.5133 9.26243 13.7074 9.26243 17.5003C9.26243 21.2932 11.8258 24.4873 15.3146 25.4449M14.5693 13.2222C13.2078 14.1566 12.3149 15.7241 12.3149 17.5002C12.3149 19.2763 13.2078 20.8438 14.5693 21.7782M20.4307 13.2222C21.7922 14.1566 22.6851 15.7241 22.6851 17.5002C22.6851 19.2763 21.7922 20.8438 20.4307 21.7782M34 17.3062H30.5059M29.7558 17.5002C29.7558 24.2689 24.2686 29.7561 17.4999 29.7561C10.7312 29.7561 5.244 24.2689 5.244 17.5002C5.244 10.7315 10.7312 5.2443 17.4999 5.2443C24.2686 5.2443 29.7558 10.7315 29.7558 17.5002Z" stroke="#0075FF" stroke-width="1.5" stroke-linecap="round"/>
</svg>
