<?xml version="1.0" encoding="utf-8" standalone="no"?>
<!DOCTYPE svg PUBLIC "-//W3C//DTD SVG 1.1//EN"
  "http://www.w3.org/Graphics/SVG/1.1/DTD/svg11.dtd">
<svg xmlns:xlink="http://www.w3.org/1999/xlink" width="396pt" height="180pt" viewBox="0 0 396 180" xmlns="http://www.w3.org/2000/svg" version="1.1">
 <metadata>
  <rdf:RDF xmlns:dc="http://purl.org/dc/elements/1.1/" xmlns:cc="http://creativecommons.org/ns#" xmlns:rdf="http://www.w3.org/1999/02/22-rdf-syntax-ns#">
   <cc:Work>
    <dc:type rdf:resource="http://purl.org/dc/dcmitype/StillImage"/>
    <dc:date>2022-08-15T22:55:06.987616</dc:date>
    <dc:format>image/svg+xml</dc:format>
    <dc:creator>
     <cc:Agent>
      <dc:title>Matplotlib v3.5.2, https://matplotlib.org/</dc:title>
     </cc:Agent>
    </dc:creator>
   </cc:Work>
  </rdf:RDF>
 </metadata>
 <defs>
  <style type="text/css">*{stroke-linejoin: round; stroke-linecap: butt}</style>
 </defs>
 <g id="figure_1">
  <g id="patch_1">
   <path d="M 0 180 
L 396 180 
L 396 0 
L 0 0 
z
" style="fill: #333333"/>
  </g>
  <g id="axes_1">
   <g id="text_1">
    <!-- Total distance downstream (km): -->
    <g style="fill: #ffffff" transform="translate(9.9 15.3)scale(0.1 -0.1)">
     <defs>
      <path id="Inter-54" d="M 309 4155 
L 309 4655 
L 3800 4655 
L 3800 4155 
L 2336 4155 
L 2336 0 
L 1773 0 
L 1773 4155 
L 309 4155 
z
" transform="scale(0.015625)"/>
      <path id="Inter-6f" d="M 1909 -73 
Q 1436 -73 1080 152 
Q 725 377 526 781 
Q 327 1186 327 1727 
Q 327 2273 526 2679 
Q 725 3086 1080 3311 
Q 1436 3536 1909 3536 
Q 2382 3536 2737 3311 
Q 3093 3086 3292 2679 
Q 3491 2273 3491 1727 
Q 3491 1186 3292 781 
Q 3093 377 2737 152 
Q 2382 -73 1909 -73 
z
M 1909 409 
Q 2268 409 2500 593 
Q 2732 777 2843 1077 
Q 2955 1377 2955 1727 
Q 2955 2077 2843 2379 
Q 2732 2682 2500 2868 
Q 2268 3055 1909 3055 
Q 1550 3055 1318 2868 
Q 1086 2682 975 2379 
Q 864 2077 864 1727 
Q 864 1377 975 1077 
Q 1086 777 1318 593 
Q 1550 409 1909 409 
z
" transform="scale(0.015625)"/>
      <path id="Inter-74" d="M 2009 3491 
L 2009 3036 
L 200 3036 
L 200 3491 
L 2009 3491 
z
M 727 4327 
L 1264 4327 
L 1264 1000 
Q 1264 773 1331 660 
Q 1398 548 1503 510 
Q 1609 473 1727 473 
Q 1816 473 1873 483 
Q 1930 493 1964 500 
L 2073 18 
Q 2018 -2 1920 -23 
Q 1823 -45 1673 -45 
Q 1446 -45 1228 52 
Q 1011 150 869 350 
Q 727 550 727 855 
L 727 4327 
z
" transform="scale(0.015625)"/>
      <path id="Inter-61" d="M 1518 -82 
Q 1186 -82 916 44 
Q 646 170 486 410 
Q 327 650 327 991 
Q 327 1291 445 1478 
Q 564 1666 761 1773 
Q 959 1880 1199 1933 
Q 1439 1986 1682 2018 
Q 2000 2059 2199 2080 
Q 2398 2102 2490 2154 
Q 2582 2207 2582 2336 
L 2582 2355 
Q 2582 2691 2399 2877 
Q 2216 3064 1846 3064 
Q 1461 3064 1243 2895 
Q 1025 2727 936 2536 
L 427 2718 
Q 564 3036 792 3214 
Q 1021 3393 1292 3464 
Q 1564 3536 1827 3536 
Q 1996 3536 2215 3496 
Q 2434 3457 2640 3334 
Q 2846 3211 2982 2963 
Q 3118 2716 3118 2300 
L 3118 0 
L 2582 0 
L 2582 473 
L 2555 473 
Q 2500 359 2373 229 
Q 2246 100 2034 9 
Q 1823 -82 1518 -82 
z
M 1600 400 
Q 1918 400 2137 525 
Q 2357 650 2469 847 
Q 2582 1045 2582 1264 
L 2582 1755 
Q 2548 1714 2433 1681 
Q 2318 1648 2169 1624 
Q 2021 1600 1881 1583 
Q 1741 1566 1655 1555 
Q 1446 1527 1265 1467 
Q 1084 1407 974 1287 
Q 864 1168 864 964 
Q 864 684 1072 542 
Q 1280 400 1600 400 
z
" transform="scale(0.015625)"/>
      <path id="Inter-6c" d="M 1027 4655 
L 1027 0 
L 491 0 
L 491 4655 
L 1027 4655 
z
" transform="scale(0.015625)"/>
      <path id="Inter-20" transform="scale(0.015625)"/>
      <path id="Inter-64" d="M 1809 -73 
Q 1373 -73 1039 148 
Q 705 370 516 776 
Q 327 1182 327 1736 
Q 327 2286 516 2690 
Q 705 3095 1041 3315 
Q 1377 3536 1818 3536 
Q 2159 3536 2358 3423 
Q 2557 3311 2662 3169 
Q 2768 3027 2827 2936 
L 2873 2936 
L 2873 4655 
L 3409 4655 
L 3409 0 
L 2891 0 
L 2891 536 
L 2827 536 
Q 2768 441 2659 296 
Q 2550 152 2348 39 
Q 2146 -73 1809 -73 
z
M 1882 409 
Q 2205 409 2427 578 
Q 2650 748 2766 1049 
Q 2882 1350 2882 1745 
Q 2882 2136 2768 2430 
Q 2655 2725 2432 2890 
Q 2209 3055 1882 3055 
Q 1541 3055 1315 2881 
Q 1089 2707 976 2410 
Q 864 2114 864 1745 
Q 864 1373 978 1069 
Q 1093 766 1319 587 
Q 1546 409 1882 409 
z
" transform="scale(0.015625)"/>
      <path id="Inter-69" d="M 491 0 
L 491 3491 
L 1027 3491 
L 1027 0 
L 491 0 
z
M 764 4073 
Q 607 4073 494 4179 
Q 382 4286 382 4436 
Q 382 4586 494 4693 
Q 607 4800 764 4800 
Q 921 4800 1033 4693 
Q 1146 4586 1146 4436 
Q 1146 4286 1033 4179 
Q 921 4073 764 4073 
z
" transform="scale(0.015625)"/>
      <path id="Inter-73" d="M 2964 2709 
L 2482 2573 
Q 2436 2693 2348 2808 
Q 2261 2923 2111 2998 
Q 1961 3073 1727 3073 
Q 1407 3073 1194 2926 
Q 982 2780 982 2555 
Q 982 2355 1127 2239 
Q 1273 2123 1582 2045 
L 2100 1918 
Q 2568 1805 2797 1572 
Q 3027 1339 3027 973 
Q 3027 673 2855 436 
Q 2684 200 2377 63 
Q 2071 -73 1664 -73 
Q 1130 -73 780 159 
Q 430 391 336 836 
L 846 964 
Q 918 682 1121 541 
Q 1325 400 1655 400 
Q 2030 400 2251 560 
Q 2473 720 2473 945 
Q 2473 1127 2345 1251 
Q 2218 1375 1955 1436 
L 1373 1573 
Q 893 1686 669 1926 
Q 446 2166 446 2527 
Q 446 2823 613 3050 
Q 780 3277 1069 3406 
Q 1359 3536 1727 3536 
Q 2246 3536 2542 3309 
Q 2839 3082 2964 2709 
z
" transform="scale(0.015625)"/>
      <path id="Inter-6e" d="M 1027 2100 
L 1027 0 
L 491 0 
L 491 3491 
L 1009 3491 
L 1009 2945 
L 1055 2945 
Q 1177 3211 1427 3373 
Q 1677 3536 2073 3536 
Q 2427 3536 2693 3392 
Q 2959 3248 3107 2956 
Q 3255 2664 3255 2218 
L 3255 0 
L 2718 0 
L 2718 2182 
Q 2718 2593 2504 2824 
Q 2291 3055 1918 3055 
Q 1661 3055 1460 2943 
Q 1259 2832 1143 2618 
Q 1027 2405 1027 2100 
z
" transform="scale(0.015625)"/>
      <path id="Inter-63" d="M 1909 -73 
Q 1418 -73 1063 159 
Q 709 391 518 798 
Q 327 1205 327 1727 
Q 327 2259 524 2667 
Q 721 3075 1074 3305 
Q 1427 3536 1900 3536 
Q 2268 3536 2563 3400 
Q 2859 3264 3047 3018 
Q 3236 2773 3282 2445 
L 2746 2445 
Q 2684 2684 2474 2869 
Q 2264 3055 1909 3055 
Q 1596 3055 1360 2892 
Q 1125 2730 994 2435 
Q 864 2141 864 1745 
Q 864 1341 992 1041 
Q 1121 741 1356 575 
Q 1591 409 1909 409 
Q 2118 409 2288 482 
Q 2459 555 2577 691 
Q 2696 827 2746 1018 
L 3282 1018 
Q 3236 709 3058 462 
Q 2880 216 2588 71 
Q 2296 -73 1909 -73 
z
" transform="scale(0.015625)"/>
      <path id="Inter-65" d="M 1955 -73 
Q 1450 -73 1085 151 
Q 721 375 524 778 
Q 327 1182 327 1718 
Q 327 2255 524 2665 
Q 721 3075 1074 3305 
Q 1427 3536 1900 3536 
Q 2173 3536 2439 3445 
Q 2705 3355 2923 3151 
Q 3141 2948 3270 2614 
Q 3400 2280 3400 1791 
L 3400 1564 
L 709 1564 
L 709 2027 
L 2855 2027 
Q 2855 2323 2738 2554 
Q 2621 2786 2406 2920 
Q 2191 3055 1900 3055 
Q 1580 3055 1347 2897 
Q 1114 2739 989 2486 
Q 864 2234 864 1945 
L 864 1636 
Q 864 1241 1001 967 
Q 1139 693 1384 551 
Q 1630 409 1955 409 
Q 2166 409 2337 469 
Q 2509 530 2634 651 
Q 2759 773 2827 955 
L 3346 809 
Q 3264 545 3070 346 
Q 2877 148 2593 37 
Q 2309 -73 1955 -73 
z
" transform="scale(0.015625)"/>
      <path id="Inter-77" d="M 1282 0 
L 218 3491 
L 782 3491 
L 1536 818 
L 1573 818 
L 2318 3491 
L 2891 3491 
L 3627 827 
L 3664 827 
L 4418 3491 
L 4982 3491 
L 3918 0 
L 3391 0 
L 2627 2682 
L 2573 2682 
L 1809 0 
L 1282 0 
z
" transform="scale(0.015625)"/>
      <path id="Inter-72" d="M 491 0 
L 491 3491 
L 1009 3491 
L 1009 2964 
L 1046 2964 
Q 1141 3223 1391 3384 
Q 1641 3545 1955 3545 
Q 2014 3545 2102 3543 
Q 2191 3541 2236 3536 
L 2236 2991 
Q 2209 2998 2112 3012 
Q 2016 3027 1909 3027 
Q 1655 3027 1456 2921 
Q 1257 2816 1142 2630 
Q 1027 2445 1027 2209 
L 1027 0 
L 491 0 
z
" transform="scale(0.015625)"/>
      <path id="Inter-6d" d="M 491 0 
L 491 3491 
L 1009 3491 
L 1009 2945 
L 1055 2945 
Q 1164 3225 1407 3380 
Q 1650 3536 1991 3536 
Q 2336 3536 2567 3380 
Q 2798 3225 2927 2945 
L 2964 2945 
Q 3098 3216 3366 3376 
Q 3634 3536 4009 3536 
Q 4477 3536 4775 3244 
Q 5073 2952 5073 2336 
L 5073 0 
L 4536 0 
L 4536 2336 
Q 4536 2723 4325 2889 
Q 4114 3055 3827 3055 
Q 3459 3055 3257 2833 
Q 3055 2611 3055 2273 
L 3055 0 
L 2509 0 
L 2509 2391 
Q 2509 2689 2316 2872 
Q 2123 3055 1818 3055 
Q 1609 3055 1428 2943 
Q 1248 2832 1137 2635 
Q 1027 2439 1027 2182 
L 1027 0 
L 491 0 
z
" transform="scale(0.015625)"/>
      <path id="Inter-28" d="M 682 1964 
Q 682 2823 906 3544 
Q 1130 4266 1546 4873 
L 2018 4873 
Q 1855 4648 1713 4319 
Q 1571 3991 1464 3599 
Q 1357 3207 1296 2788 
Q 1236 2370 1236 1964 
Q 1236 1423 1341 866 
Q 1446 309 1623 -168 
Q 1800 -645 2018 -945 
L 1546 -945 
Q 1130 -339 906 383 
Q 682 1105 682 1964 
z
" transform="scale(0.015625)"/>
      <path id="Inter-6b" d="M 991 1273 
L 982 1936 
L 1091 1936 
L 2618 3491 
L 3282 3491 
L 1655 1845 
L 1609 1845 
L 991 1273 
z
M 491 0 
L 491 4655 
L 1027 4655 
L 1027 0 
L 491 0 
z
M 2709 0 
L 1346 1727 
L 1727 2100 
L 3391 0 
L 2709 0 
z
" transform="scale(0.015625)"/>
      <path id="Inter-29" d="M 1636 1964 
Q 1636 1105 1412 383 
Q 1189 -339 773 -945 
L 300 -945 
Q 464 -720 606 -392 
Q 748 -64 854 328 
Q 961 720 1021 1139 
Q 1082 1559 1082 1964 
Q 1082 2505 977 3061 
Q 873 3618 695 4095 
Q 518 4573 300 4873 
L 773 4873 
Q 1189 4266 1412 3544 
Q 1636 2823 1636 1964 
z
" transform="scale(0.015625)"/>
      <path id="Inter-3a" d="M 882 -36 
Q 714 -36 593 84 
Q 473 205 473 373 
Q 473 541 593 661 
Q 714 782 882 782 
Q 1050 782 1170 661 
Q 1291 541 1291 373 
Q 1291 261 1235 168 
Q 1180 75 1088 19 
Q 996 -36 882 -36 
z
M 882 2555 
Q 714 2555 593 2675 
Q 473 2795 473 2964 
Q 473 3132 593 3252 
Q 714 3373 882 3373 
Q 1050 3373 1170 3252 
Q 1291 3132 1291 2964 
Q 1291 2852 1235 2759 
Q 1180 2666 1088 2610 
Q 996 2555 882 2555 
z
" transform="scale(0.015625)"/>
     </defs>
     <use xlink:href="#Inter-54"/>
     <use xlink:href="#Inter-6f" x="64.204559"/>
     <use xlink:href="#Inter-74" x="123.863663"/>
     <use xlink:href="#Inter-61" x="160.22731"/>
     <use xlink:href="#Inter-6c" x="216.61937"/>
     <use xlink:href="#Inter-20" x="240.340958"/>
     <use xlink:href="#Inter-64" x="268.465958"/>
     <use xlink:href="#Inter-69" x="330.539841"/>
     <use xlink:href="#Inter-73" x="354.261429"/>
     <use xlink:href="#Inter-74" x="406.534164"/>
     <use xlink:href="#Inter-61" x="442.897812"/>
     <use xlink:href="#Inter-6e" x="499.289871"/>
     <use xlink:href="#Inter-63" x="557.812607"/>
     <use xlink:href="#Inter-65" x="613.636475"/>
     <use xlink:href="#Inter-20" x="671.875122"/>
     <use xlink:href="#Inter-64" x="700.000122"/>
     <use xlink:href="#Inter-6f" x="762.074005"/>
     <use xlink:href="#Inter-77" x="821.733109"/>
     <use xlink:href="#Inter-6e" x="902.983124"/>
     <use xlink:href="#Inter-73" x="961.505859"/>
     <use xlink:href="#Inter-74" x="1013.778595"/>
     <use xlink:href="#Inter-72" x="1050.142242"/>
     <use xlink:href="#Inter-65" x="1087.358154"/>
     <use xlink:href="#Inter-61" x="1145.596802"/>
     <use xlink:href="#Inter-6d" x="1201.988861"/>
     <use xlink:href="#Inter-20" x="1288.9207"/>
     <use xlink:href="#Inter-28" x="1317.0457"/>
     <use xlink:href="#Inter-6b" x="1353.267288"/>
     <use xlink:href="#Inter-6d" x="1407.6707"/>
     <use xlink:href="#Inter-29" x="1494.602539"/>
     <use xlink:href="#Inter-3a" x="1530.824127"/>
    </g>
   </g>
  </g>
  <g id="axes_2">
   <g id="text_2">
    <!-- 694.19 -->
    <g style="fill: #ffffff" transform="translate(348.055156 15.954688)scale(0.1 -0.1)">
     <defs>
      <path id="Inter-36" d="M 2027 -64 
Q 1741 -59 1454 45 
Q 1168 150 932 399 
Q 696 648 552 1074 
Q 409 1500 409 2145 
Q 409 2764 525 3242 
Q 641 3720 861 4048 
Q 1082 4377 1394 4547 
Q 1707 4718 2100 4718 
Q 2491 4718 2796 4562 
Q 3102 4407 3295 4129 
Q 3489 3852 3546 3491 
L 2991 3491 
Q 2914 3805 2691 4011 
Q 2468 4218 2100 4218 
Q 1559 4218 1249 3747 
Q 939 3277 936 2427 
L 973 2427 
Q 1100 2620 1276 2757 
Q 1452 2895 1666 2970 
Q 1880 3045 2118 3045 
Q 2518 3045 2850 2846 
Q 3182 2648 3382 2299 
Q 3582 1950 3582 1500 
Q 3582 1068 3389 710 
Q 3196 352 2847 142 
Q 2498 -68 2027 -64 
z
M 2027 436 
Q 2314 436 2542 579 
Q 2771 723 2903 964 
Q 3036 1205 3036 1500 
Q 3036 1789 2908 2026 
Q 2780 2264 2556 2404 
Q 2332 2545 2046 2545 
Q 1830 2545 1643 2460 
Q 1457 2375 1317 2227 
Q 1177 2080 1097 1890 
Q 1018 1700 1018 1491 
Q 1018 1214 1149 973 
Q 1280 732 1508 584 
Q 1736 436 2027 436 
z
" transform="scale(0.015625)"/>
      <path id="Inter-39" d="M 1964 4718 
Q 2250 4716 2536 4609 
Q 2823 4502 3059 4255 
Q 3296 4009 3439 3584 
Q 3582 3159 3582 2518 
Q 3582 1898 3465 1417 
Q 3348 936 3128 606 
Q 2909 277 2596 106 
Q 2284 -64 1891 -64 
Q 1500 -64 1194 92 
Q 889 248 694 526 
Q 500 805 446 1173 
L 1000 1173 
Q 1075 852 1299 644 
Q 1523 436 1891 436 
Q 2430 436 2742 906 
Q 3055 1377 3055 2236 
L 3018 2236 
Q 2891 2045 2716 1906 
Q 2541 1768 2327 1693 
Q 2114 1618 1873 1618 
Q 1473 1618 1140 1817 
Q 807 2016 608 2365 
Q 409 2714 409 3164 
Q 409 3591 601 3946 
Q 793 4302 1142 4513 
Q 1491 4725 1964 4718 
z
M 1964 4218 
Q 1677 4218 1449 4076 
Q 1221 3934 1088 3694 
Q 955 3455 955 3164 
Q 955 2873 1083 2635 
Q 1211 2398 1435 2258 
Q 1659 2118 1946 2118 
Q 2161 2118 2347 2203 
Q 2534 2289 2674 2437 
Q 2814 2586 2893 2776 
Q 2973 2966 2973 3173 
Q 2973 3445 2842 3684 
Q 2711 3923 2483 4070 
Q 2255 4218 1964 4218 
z
" transform="scale(0.015625)"/>
      <path id="Inter-34" d="M 373 955 
L 373 1418 
L 2418 4655 
L 2755 4655 
L 2755 3936 
L 2527 3936 
L 982 1491 
L 982 1455 
L 3736 1455 
L 3736 955 
L 373 955 
z
M 2564 0 
L 2564 1095 
L 2564 1311 
L 2564 4655 
L 3100 4655 
L 3100 0 
L 2564 0 
z
" transform="scale(0.015625)"/>
      <path id="Inter-2e" d="M 882 -36 
Q 714 -36 593 84 
Q 473 205 473 373 
Q 473 541 593 661 
Q 714 782 882 782 
Q 1050 782 1170 661 
Q 1291 541 1291 373 
Q 1291 261 1235 168 
Q 1180 75 1088 19 
Q 996 -36 882 -36 
z
" transform="scale(0.015625)"/>
      <path id="Inter-31" d="M 2118 4655 
L 2118 0 
L 1555 0 
L 1555 4064 
L 1527 4064 
L 391 3309 
L 391 3882 
L 1555 4655 
L 2118 4655 
z
" transform="scale(0.015625)"/>
     </defs>
     <use xlink:href="#Inter-36"/>
     <use xlink:href="#Inter-39" x="62.357971"/>
     <use xlink:href="#Inter-34" x="124.715942"/>
     <use xlink:href="#Inter-2e" x="188.920502"/>
     <use xlink:href="#Inter-31" x="216.477325"/>
     <use xlink:href="#Inter-39" x="262.926193"/>
    </g>
   </g>
  </g>
  <g id="axes_3">
   <g id="text_3">
    <!-- Number of downstream: -->
    <g style="fill: #ffffff" transform="translate(9.9 32.4)scale(0.1 -0.1)">
     <defs>
      <path id="Inter-4e" d="M 4255 4655 
L 4255 0 
L 3709 0 
L 1173 3655 
L 1127 3655 
L 1127 0 
L 564 0 
L 564 4655 
L 1109 4655 
L 3655 991 
L 3700 991 
L 3700 4655 
L 4255 4655 
z
" transform="scale(0.015625)"/>
      <path id="Inter-75" d="M 2691 1427 
L 2691 3491 
L 3227 3491 
L 3227 0 
L 2691 0 
L 2691 591 
L 2655 591 
Q 2532 325 2273 140 
Q 2014 -45 1618 -45 
Q 1291 -45 1036 99 
Q 782 243 636 535 
Q 491 827 491 1273 
L 491 3491 
L 1027 3491 
L 1027 1309 
Q 1027 927 1242 700 
Q 1457 473 1791 473 
Q 1991 473 2199 575 
Q 2407 677 2549 888 
Q 2691 1100 2691 1427 
z
" transform="scale(0.015625)"/>
      <path id="Inter-62" d="M 564 0 
L 564 4655 
L 1100 4655 
L 1100 2936 
L 1146 2936 
Q 1205 3027 1310 3169 
Q 1416 3311 1615 3423 
Q 1814 3536 2155 3536 
Q 2596 3536 2932 3315 
Q 3268 3095 3457 2690 
Q 3646 2286 3646 1736 
Q 3646 1182 3457 776 
Q 3268 370 2934 148 
Q 2600 -73 2164 -73 
Q 1827 -73 1625 39 
Q 1423 152 1314 296 
Q 1205 441 1146 536 
L 1082 536 
L 1082 0 
L 564 0 
z
M 1091 1745 
Q 1091 1350 1207 1049 
Q 1323 748 1545 578 
Q 1768 409 2091 409 
Q 2427 409 2653 587 
Q 2880 766 2994 1069 
Q 3109 1373 3109 1745 
Q 3109 2114 2996 2410 
Q 2884 2707 2658 2881 
Q 2432 3055 2091 3055 
Q 1764 3055 1541 2890 
Q 1318 2725 1204 2430 
Q 1091 2136 1091 1745 
z
" transform="scale(0.015625)"/>
      <path id="Inter-66" d="M 2046 3491 
L 2046 3036 
L 164 3036 
L 164 3491 
L 2046 3491 
z
M 727 0 
L 727 3973 
Q 727 4273 868 4473 
Q 1009 4673 1234 4773 
Q 1459 4873 1709 4873 
Q 1907 4873 2032 4841 
Q 2157 4809 2218 4782 
L 2064 4318 
Q 2023 4332 1951 4352 
Q 1880 4373 1764 4373 
Q 1498 4373 1381 4239 
Q 1264 4105 1264 3845 
L 1264 0 
L 727 0 
z
" transform="scale(0.015625)"/>
     </defs>
     <use xlink:href="#Inter-4e"/>
     <use xlink:href="#Inter-75" x="75.284103"/>
     <use xlink:href="#Inter-6d" x="133.380707"/>
     <use xlink:href="#Inter-62" x="220.312546"/>
     <use xlink:href="#Inter-65" x="282.386429"/>
     <use xlink:href="#Inter-72" x="340.625076"/>
     <use xlink:href="#Inter-20" x="377.840988"/>
     <use xlink:href="#Inter-6f" x="405.965988"/>
     <use xlink:href="#Inter-66" x="465.625092"/>
     <use xlink:href="#Inter-20" x="501.704636"/>
     <use xlink:href="#Inter-64" x="529.829636"/>
     <use xlink:href="#Inter-6f" x="591.903519"/>
     <use xlink:href="#Inter-77" x="651.562622"/>
     <use xlink:href="#Inter-6e" x="732.812637"/>
     <use xlink:href="#Inter-73" x="791.335373"/>
     <use xlink:href="#Inter-74" x="843.608109"/>
     <use xlink:href="#Inter-72" x="879.971756"/>
     <use xlink:href="#Inter-65" x="917.187668"/>
     <use xlink:href="#Inter-61" x="975.426315"/>
     <use xlink:href="#Inter-6d" x="1031.818375"/>
     <use xlink:href="#Inter-3a" x="1118.750214"/>
    </g>
   </g>
  </g>
  <g id="axes_4">
   <g id="patch_2">
    <path d="M 346.5 35.1 
L 382.14 35.1 
L 382.14 21.6 
L 346.5 21.6 
z
" style="fill: #f0852d"/>
   </g>
   <g id="matplotlib.axis_1"/>
   <g id="matplotlib.axis_2"/>
   <g id="patch_3">
    <path d="M 346.5 35.1 
L 346.5 21.6 
" style="fill: none"/>
   </g>
   <g id="patch_4">
    <path d="M 382.14 35.1 
L 382.14 21.6 
" style="fill: none"/>
   </g>
   <g id="patch_5">
    <path d="M 346.5 35.1 
L 382.14 35.1 
" style="fill: none"/>
   </g>
   <g id="patch_6">
    <path d="M 346.5 21.6 
L 382.14 21.6 
" style="fill: none"/>
   </g>
   <g id="text_4">
    <!-- 5 -->
    <g style="fill: #ffffff" transform="translate(361.280156 30.964062)scale(0.1 -0.1)">
     <defs>
      <path id="Inter-35" d="M 1936 -64 
Q 1536 -64 1216 95 
Q 896 255 702 532 
Q 509 809 491 1164 
L 1036 1164 
Q 1068 848 1324 642 
Q 1580 436 1936 436 
Q 2223 436 2447 570 
Q 2671 705 2799 940 
Q 2927 1175 2927 1473 
Q 2927 1777 2794 2017 
Q 2661 2257 2429 2395 
Q 2198 2534 1900 2536 
Q 1686 2539 1461 2472 
Q 1236 2405 1091 2300 
L 564 2364 
L 846 4655 
L 3264 4655 
L 3264 4155 
L 1318 4155 
L 1155 2782 
L 1182 2782 
Q 1325 2895 1541 2970 
Q 1757 3045 1991 3045 
Q 2418 3045 2753 2842 
Q 3089 2639 3281 2286 
Q 3473 1934 3473 1482 
Q 3473 1036 3274 687 
Q 3075 339 2727 137 
Q 2380 -64 1936 -64 
z
" transform="scale(0.015625)"/>
     </defs>
     <use xlink:href="#Inter-35"/>
    </g>
   </g>
  </g>
  <g id="axes_5">
   <g id="text_5">
    <!-- Distance separating reaches (km): -->
    <g style="fill: #ffffff" transform="translate(9.9 49.5)scale(0.1 -0.1)">
     <defs>
      <path id="Inter-44" d="M 2000 0 
L 564 0 
L 564 4655 
L 2064 4655 
Q 2741 4655 3223 4376 
Q 3705 4098 3961 3578 
Q 4218 3059 4218 2336 
Q 4218 1609 3959 1085 
Q 3700 561 3204 280 
Q 2709 0 2000 0 
z
M 1127 500 
L 1964 500 
Q 2541 500 2920 722 
Q 3300 945 3486 1356 
Q 3673 1768 3673 2336 
Q 3673 2900 3489 3308 
Q 3305 3716 2939 3935 
Q 2573 4155 2027 4155 
L 1127 4155 
L 1127 500 
z
" transform="scale(0.015625)"/>
      <path id="Inter-70" d="M 491 -1309 
L 491 3491 
L 1009 3491 
L 1009 2936 
L 1073 2936 
Q 1132 3027 1237 3169 
Q 1343 3311 1542 3423 
Q 1741 3536 2082 3536 
Q 2523 3536 2859 3315 
Q 3196 3095 3384 2690 
Q 3573 2286 3573 1736 
Q 3573 1182 3384 776 
Q 3196 370 2861 148 
Q 2527 -73 2091 -73 
Q 1755 -73 1552 39 
Q 1350 152 1241 296 
Q 1132 441 1073 536 
L 1027 536 
L 1027 -1309 
L 491 -1309 
z
M 1018 1745 
Q 1018 1350 1134 1049 
Q 1250 748 1473 578 
Q 1696 409 2018 409 
Q 2355 409 2581 587 
Q 2807 766 2921 1069 
Q 3036 1373 3036 1745 
Q 3036 2114 2923 2410 
Q 2811 2707 2585 2881 
Q 2359 3055 2018 3055 
Q 1691 3055 1468 2890 
Q 1246 2725 1132 2430 
Q 1018 2136 1018 1745 
z
" transform="scale(0.015625)"/>
      <path id="Inter-67" d="M 1900 -1382 
Q 1511 -1382 1231 -1283 
Q 952 -1184 767 -1024 
Q 582 -864 473 -682 
L 900 -382 
Q 973 -477 1084 -601 
Q 1196 -725 1390 -817 
Q 1584 -909 1900 -909 
Q 2323 -909 2598 -704 
Q 2873 -500 2873 -64 
L 2873 645 
L 2827 645 
Q 2768 550 2660 410 
Q 2552 270 2351 162 
Q 2150 55 1809 55 
Q 1386 55 1051 255 
Q 716 455 521 836 
Q 327 1218 327 1764 
Q 327 2300 516 2699 
Q 705 3098 1041 3317 
Q 1377 3536 1818 3536 
Q 2159 3536 2360 3423 
Q 2561 3311 2669 3169 
Q 2777 3027 2836 2936 
L 2891 2936 
L 2891 3491 
L 3409 3491 
L 3409 -100 
Q 3409 -550 3205 -833 
Q 3002 -1116 2660 -1249 
Q 2318 -1382 1900 -1382 
z
M 1882 536 
Q 2205 536 2427 684 
Q 2650 832 2766 1109 
Q 2882 1386 2882 1773 
Q 2882 2150 2768 2438 
Q 2655 2727 2432 2891 
Q 2209 3055 1882 3055 
Q 1541 3055 1315 2882 
Q 1089 2709 976 2418 
Q 864 2127 864 1773 
Q 864 1409 978 1130 
Q 1093 852 1319 694 
Q 1546 536 1882 536 
z
" transform="scale(0.015625)"/>
      <path id="Inter-68" d="M 1027 2100 
L 1027 0 
L 491 0 
L 491 4655 
L 1027 4655 
L 1027 2945 
L 1073 2945 
Q 1196 3216 1442 3376 
Q 1689 3536 2100 3536 
Q 2457 3536 2725 3394 
Q 2993 3252 3142 2960 
Q 3291 2668 3291 2218 
L 3291 0 
L 2755 0 
L 2755 2182 
Q 2755 2598 2540 2826 
Q 2325 3055 1946 3055 
Q 1682 3055 1474 2943 
Q 1266 2832 1146 2618 
Q 1027 2405 1027 2100 
z
" transform="scale(0.015625)"/>
     </defs>
     <use xlink:href="#Inter-44"/>
     <use xlink:href="#Inter-69" x="71.875015"/>
     <use xlink:href="#Inter-73" x="95.596603"/>
     <use xlink:href="#Inter-74" x="147.869339"/>
     <use xlink:href="#Inter-61" x="184.232986"/>
     <use xlink:href="#Inter-6e" x="240.625046"/>
     <use xlink:href="#Inter-63" x="299.147781"/>
     <use xlink:href="#Inter-65" x="354.971649"/>
     <use xlink:href="#Inter-20" x="413.210297"/>
     <use xlink:href="#Inter-73" x="441.335297"/>
     <use xlink:href="#Inter-65" x="493.608032"/>
     <use xlink:href="#Inter-70" x="551.84668"/>
     <use xlink:href="#Inter-61" x="612.784195"/>
     <use xlink:href="#Inter-72" x="669.176254"/>
     <use xlink:href="#Inter-61" x="706.392166"/>
     <use xlink:href="#Inter-74" x="762.784225"/>
     <use xlink:href="#Inter-69" x="799.147873"/>
     <use xlink:href="#Inter-6e" x="822.869461"/>
     <use xlink:href="#Inter-67" x="881.392197"/>
     <use xlink:href="#Inter-20" x="942.329712"/>
     <use xlink:href="#Inter-72" x="970.454712"/>
     <use xlink:href="#Inter-65" x="1007.670624"/>
     <use xlink:href="#Inter-61" x="1065.909271"/>
     <use xlink:href="#Inter-63" x="1122.301331"/>
     <use xlink:href="#Inter-68" x="1178.125198"/>
     <use xlink:href="#Inter-65" x="1237.216125"/>
     <use xlink:href="#Inter-73" x="1295.454773"/>
     <use xlink:href="#Inter-20" x="1347.727509"/>
     <use xlink:href="#Inter-28" x="1375.852509"/>
     <use xlink:href="#Inter-6b" x="1412.074097"/>
     <use xlink:href="#Inter-6d" x="1466.477509"/>
     <use xlink:href="#Inter-29" x="1553.409348"/>
     <use xlink:href="#Inter-3a" x="1589.630936"/>
    </g>
   </g>
  </g>
  <g id="axes_6">
   <g id="patch_7">
    <path d="M 346.5 52.2 
L 382.14 52.2 
L 382.14 38.7 
L 346.5 38.7 
z
" style="fill: #f0852d"/>
   </g>
   <g id="matplotlib.axis_3"/>
   <g id="matplotlib.axis_4"/>
   <g id="patch_8">
    <path d="M 346.5 52.2 
L 346.5 38.7 
" style="fill: none"/>
   </g>
   <g id="patch_9">
    <path d="M 382.14 52.2 
L 382.14 38.7 
" style="fill: none"/>
   </g>
   <g id="patch_10">
    <path d="M 346.5 52.2 
L 382.14 52.2 
" style="fill: none"/>
   </g>
   <g id="patch_11">
    <path d="M 346.5 38.7 
L 382.14 38.7 
" style="fill: none"/>
   </g>
   <g id="text_6">
    <!-- 117 -->
    <g style="fill: #ffffff" transform="translate(356.819219 48.064063)scale(0.1 -0.1)">
     <defs>
      <path id="Inter-37" d="M 627 0 
L 2709 4118 
L 2709 4155 
L 309 4155 
L 309 4655 
L 3291 4655 
L 3291 4127 
L 1218 0 
L 627 0 
z
" transform="scale(0.015625)"/>
     </defs>
     <use xlink:href="#Inter-31"/>
     <use xlink:href="#Inter-31" x="46.448868"/>
     <use xlink:href="#Inter-37" x="92.897736"/>
    </g>
   </g>
  </g>
  <g id="axes_7">
   <g id="text_7">
    <!-- Percentile for event detection: -->
    <g style="fill: #ffffff" transform="translate(9.9 66.6)scale(0.1 -0.1)">
     <defs>
      <path id="Inter-50" d="M 564 0 
L 564 4655 
L 2136 4655 
Q 2684 4655 3033 4458 
Q 3382 4261 3550 3927 
Q 3718 3593 3718 3182 
Q 3718 2770 3551 2434 
Q 3384 2098 3036 1899 
Q 2689 1700 2146 1700 
L 1018 1700 
L 1018 2200 
L 2127 2200 
Q 2502 2200 2729 2329 
Q 2957 2459 3060 2680 
Q 3164 2902 3164 3182 
Q 3164 3461 3060 3681 
Q 2957 3902 2727 4028 
Q 2498 4155 2118 4155 
L 1127 4155 
L 1127 0 
L 564 0 
z
" transform="scale(0.015625)"/>
      <path id="Inter-76" d="M 3346 3491 
L 2055 0 
L 1509 0 
L 218 3491 
L 800 3491 
L 1764 709 
L 1800 709 
L 2764 3491 
L 3346 3491 
z
" transform="scale(0.015625)"/>
     </defs>
     <use xlink:href="#Inter-50"/>
     <use xlink:href="#Inter-65" x="63.494324"/>
     <use xlink:href="#Inter-72" x="121.732971"/>
     <use xlink:href="#Inter-63" x="158.948883"/>
     <use xlink:href="#Inter-65" x="214.772751"/>
     <use xlink:href="#Inter-6e" x="273.011398"/>
     <use xlink:href="#Inter-74" x="331.534134"/>
     <use xlink:href="#Inter-69" x="367.897781"/>
     <use xlink:href="#Inter-6c" x="391.61937"/>
     <use xlink:href="#Inter-65" x="415.340958"/>
     <use xlink:href="#Inter-20" x="473.579605"/>
     <use xlink:href="#Inter-66" x="501.704605"/>
     <use xlink:href="#Inter-6f" x="537.784149"/>
     <use xlink:href="#Inter-72" x="597.443253"/>
     <use xlink:href="#Inter-20" x="634.659164"/>
     <use xlink:href="#Inter-65" x="662.784164"/>
     <use xlink:href="#Inter-76" x="721.022812"/>
     <use xlink:href="#Inter-65" x="776.704636"/>
     <use xlink:href="#Inter-6e" x="834.943283"/>
     <use xlink:href="#Inter-74" x="893.466019"/>
     <use xlink:href="#Inter-20" x="929.829666"/>
     <use xlink:href="#Inter-64" x="957.954666"/>
     <use xlink:href="#Inter-65" x="1020.028549"/>
     <use xlink:href="#Inter-74" x="1078.267197"/>
     <use xlink:href="#Inter-65" x="1114.630844"/>
     <use xlink:href="#Inter-63" x="1172.869492"/>
     <use xlink:href="#Inter-74" x="1228.693359"/>
     <use xlink:href="#Inter-69" x="1265.057007"/>
     <use xlink:href="#Inter-6f" x="1288.778595"/>
     <use xlink:href="#Inter-6e" x="1348.437698"/>
     <use xlink:href="#Inter-3a" x="1406.960434"/>
    </g>
   </g>
  </g>
  <g id="axes_8">
   <g id="patch_12">
    <path d="M 346.5 69.3 
L 382.14 69.3 
L 382.14 55.8 
L 346.5 55.8 
z
" style="fill: #f0852d"/>
   </g>
   <g id="matplotlib.axis_5"/>
   <g id="matplotlib.axis_6"/>
   <g id="patch_13">
    <path d="M 346.5 69.3 
L 346.5 55.8 
" style="fill: none"/>
   </g>
   <g id="patch_14">
    <path d="M 382.14 69.3 
L 382.14 55.8 
" style="fill: none"/>
   </g>
   <g id="patch_15">
    <path d="M 346.5 69.3 
L 382.14 69.3 
" style="fill: none"/>
   </g>
   <g id="patch_16">
    <path d="M 346.5 55.8 
L 382.14 55.8 
" style="fill: none"/>
   </g>
   <g id="text_8">
    <!-- 90 -->
    <g style="fill: #ffffff" transform="translate(358.077031 65.164063)scale(0.1 -0.1)">
     <defs>
      <path id="Inter-30" d="M 2000 -64 
Q 1486 -64 1125 217 
Q 764 498 573 1033 
Q 382 1568 382 2327 
Q 382 3082 574 3617 
Q 766 4152 1128 4435 
Q 1491 4718 2000 4718 
Q 2509 4718 2871 4435 
Q 3234 4152 3426 3617 
Q 3618 3082 3618 2327 
Q 3618 1568 3427 1033 
Q 3236 498 2875 217 
Q 2514 -64 2000 -64 
z
M 2000 436 
Q 2509 436 2791 927 
Q 3073 1418 3073 2327 
Q 3073 2932 2944 3357 
Q 2816 3782 2576 4004 
Q 2336 4227 2000 4227 
Q 1496 4227 1211 3730 
Q 927 3234 927 2327 
Q 927 1723 1054 1300 
Q 1182 877 1421 656 
Q 1661 436 2000 436 
z
" transform="scale(0.015625)"/>
     </defs>
     <use xlink:href="#Inter-39"/>
     <use xlink:href="#Inter-30" x="62.357971"/>
    </g>
   </g>
  </g>
  <g id="axes_9">
   <g id="patch_17">
    <path d="M 9.9 175.5 
L 132.66 175.5 
L 132.66 103.5 
L 9.9 103.5 
z
" style="fill: #0492c2"/>
   </g>
   <g id="matplotlib.axis_7"/>
   <g id="matplotlib.axis_8"/>
   <g id="patch_18">
    <path d="M 9.9 175.5 
L 9.9 103.5 
" style="fill: none"/>
   </g>
   <g id="patch_19">
    <path d="M 132.66 175.5 
L 132.66 103.5 
" style="fill: none"/>
   </g>
   <g id="patch_20">
    <path d="M 9.9 175.5 
L 132.66 175.5 
" style="fill: none"/>
   </g>
   <g id="patch_21">
    <path d="M 9.9 103.5 
L 132.66 103.5 
" style="fill: none"/>
   </g>
   <g id="text_9">
    <!-- Show -->
    <g style="fill: #ffffff" transform="translate(58.090938 136.534375)scale(0.1 -0.1)">
     <defs>
      <path id="Inter-53" d="M 3109 3491 
Q 3068 3836 2777 4027 
Q 2486 4218 2064 4218 
Q 1755 4218 1524 4118 
Q 1293 4018 1164 3843 
Q 1036 3668 1036 3445 
Q 1036 3259 1126 3126 
Q 1216 2993 1357 2905 
Q 1498 2818 1652 2762 
Q 1807 2707 1936 2673 
L 2409 2545 
Q 2591 2498 2815 2414 
Q 3039 2330 3244 2185 
Q 3450 2041 3584 1816 
Q 3718 1591 3718 1264 
Q 3718 886 3521 581 
Q 3325 277 2949 97 
Q 2573 -82 2036 -82 
Q 1536 -82 1171 79 
Q 807 241 599 529 
Q 391 818 364 1200 
L 946 1200 
Q 968 936 1124 764 
Q 1280 593 1519 510 
Q 1759 427 2036 427 
Q 2359 427 2616 533 
Q 2873 639 3023 828 
Q 3173 1018 3173 1273 
Q 3173 1505 3043 1650 
Q 2914 1795 2702 1886 
Q 2491 1977 2246 2045 
L 1673 2209 
Q 1127 2366 809 2657 
Q 491 2948 491 3418 
Q 491 3809 703 4101 
Q 916 4393 1276 4555 
Q 1636 4718 2082 4718 
Q 2532 4718 2882 4558 
Q 3232 4398 3437 4120 
Q 3643 3843 3655 3491 
L 3109 3491 
z
" transform="scale(0.015625)"/>
     </defs>
     <use xlink:href="#Inter-53"/>
     <use xlink:href="#Inter-68" x="63.778427"/>
     <use xlink:href="#Inter-6f" x="122.869354"/>
     <use xlink:href="#Inter-77" x="182.528458"/>
    </g>
    <!-- Discharge Timeseries -->
    <g style="fill: #ffffff" transform="translate(20.341719 147.579687)scale(0.1 -0.1)">
     <use xlink:href="#Inter-44"/>
     <use xlink:href="#Inter-69" x="71.875015"/>
     <use xlink:href="#Inter-73" x="95.596603"/>
     <use xlink:href="#Inter-63" x="147.869339"/>
     <use xlink:href="#Inter-68" x="203.693207"/>
     <use xlink:href="#Inter-61" x="262.784134"/>
     <use xlink:href="#Inter-72" x="319.176193"/>
     <use xlink:href="#Inter-67" x="356.392105"/>
     <use xlink:href="#Inter-65" x="417.32962"/>
     <use xlink:href="#Inter-20" x="475.568268"/>
     <use xlink:href="#Inter-54" x="503.693268"/>
     <use xlink:href="#Inter-69" x="567.897827"/>
     <use xlink:href="#Inter-6d" x="591.619415"/>
     <use xlink:href="#Inter-65" x="678.551254"/>
     <use xlink:href="#Inter-73" x="736.789902"/>
     <use xlink:href="#Inter-65" x="789.062637"/>
     <use xlink:href="#Inter-72" x="847.301285"/>
     <use xlink:href="#Inter-69" x="884.517197"/>
     <use xlink:href="#Inter-65" x="908.238785"/>
     <use xlink:href="#Inter-73" x="966.477432"/>
    </g>
   </g>
  </g>
  <g id="axes_10">
   <g id="patch_22">
    <path d="M 136.62 175.5 
L 259.38 175.5 
L 259.38 103.5 
L 136.62 103.5 
z
" style="fill: #0492c2"/>
   </g>
   <g id="matplotlib.axis_9"/>
   <g id="matplotlib.axis_10"/>
   <g id="patch_23">
    <path d="M 136.62 175.5 
L 136.62 103.5 
" style="fill: none"/>
   </g>
   <g id="patch_24">
    <path d="M 259.38 175.5 
L 259.38 103.5 
" style="fill: none"/>
   </g>
   <g id="patch_25">
    <path d="M 136.62 175.5 
L 259.38 175.5 
" style="fill: none"/>
   </g>
   <g id="patch_26">
    <path d="M 136.62 103.5 
L 259.38 103.5 
" style="fill: none"/>
   </g>
   <g id="text_10">
    <!-- Show -->
    <g style="fill: #ffffff" transform="translate(184.810937 136.534375)scale(0.1 -0.1)">
     <use xlink:href="#Inter-53"/>
     <use xlink:href="#Inter-68" x="63.778427"/>
     <use xlink:href="#Inter-6f" x="122.869354"/>
     <use xlink:href="#Inter-77" x="182.528458"/>
    </g>
    <!-- Flow Wave Propagation -->
    <g style="fill: #ffffff" transform="translate(142.097656 147.579687)scale(0.1 -0.1)">
     <defs>
      <path id="Inter-46" d="M 564 0 
L 564 4655 
L 3355 4655 
L 3355 4155 
L 1127 4155 
L 1127 2582 
L 3146 2582 
L 3146 2082 
L 1127 2082 
L 1127 0 
L 564 0 
z
" transform="scale(0.015625)"/>
      <path id="Inter-57" d="M 1409 0 
L 136 4655 
L 709 4655 
L 1682 864 
L 1727 864 
L 2718 4655 
L 3355 4655 
L 4346 864 
L 4391 864 
L 5364 4655 
L 5936 4655 
L 4664 0 
L 4082 0 
L 3055 3709 
L 3018 3709 
L 1991 0 
L 1409 0 
z
" transform="scale(0.015625)"/>
     </defs>
     <use xlink:href="#Inter-46"/>
     <use xlink:href="#Inter-6c" x="58.66478"/>
     <use xlink:href="#Inter-6f" x="82.386368"/>
     <use xlink:href="#Inter-77" x="142.045471"/>
     <use xlink:href="#Inter-20" x="223.295486"/>
     <use xlink:href="#Inter-57" x="251.420486"/>
     <use xlink:href="#Inter-61" x="346.30687"/>
     <use xlink:href="#Inter-76" x="402.698929"/>
     <use xlink:href="#Inter-65" x="458.380753"/>
     <use xlink:href="#Inter-20" x="516.6194"/>
     <use xlink:href="#Inter-50" x="544.7444"/>
     <use xlink:href="#Inter-72" x="608.238724"/>
     <use xlink:href="#Inter-6f" x="645.454636"/>
     <use xlink:href="#Inter-70" x="705.113739"/>
     <use xlink:href="#Inter-61" x="766.051254"/>
     <use xlink:href="#Inter-67" x="822.443314"/>
     <use xlink:href="#Inter-61" x="883.380829"/>
     <use xlink:href="#Inter-74" x="939.772888"/>
     <use xlink:href="#Inter-69" x="976.136536"/>
     <use xlink:href="#Inter-6f" x="999.858124"/>
     <use xlink:href="#Inter-6e" x="1059.517227"/>
    </g>
   </g>
  </g>
  <g id="axes_11">
   <g id="patch_27">
    <path d="M 263.34 175.5 
L 386.1 175.5 
L 386.1 103.5 
L 263.34 103.5 
z
" style="fill: #0492c2"/>
   </g>
   <g id="matplotlib.axis_11"/>
   <g id="matplotlib.axis_12"/>
   <g id="patch_28">
    <path d="M 263.34 175.5 
L 263.34 103.5 
" style="fill: none"/>
   </g>
   <g id="patch_29">
    <path d="M 386.1 175.5 
L 386.1 103.5 
" style="fill: none"/>
   </g>
   <g id="patch_30">
    <path d="M 263.34 175.5 
L 386.1 175.5 
" style="fill: none"/>
   </g>
   <g id="patch_31">
    <path d="M 263.34 103.5 
L 386.1 103.5 
" style="fill: none"/>
   </g>
   <g id="text_11">
    <!-- Show -->
    <g style="fill: #ffffff" transform="translate(311.530938 136.727344)scale(0.1 -0.1)">
     <use xlink:href="#Inter-53"/>
     <use xlink:href="#Inter-68" x="63.778427"/>
     <use xlink:href="#Inter-6f" x="122.869354"/>
     <use xlink:href="#Inter-77" x="182.528458"/>
    </g>
    <!-- Event Duration -->
    <g style="fill: #ffffff" transform="translate(289.791094 147.500781)scale(0.1 -0.1)">
     <defs>
      <path id="Inter-45" d="M 564 0 
L 564 4655 
L 3373 4655 
L 3373 4155 
L 1127 4155 
L 1127 2582 
L 3227 2582 
L 3227 2082 
L 1127 2082 
L 1127 500 
L 3409 500 
L 3409 0 
L 564 0 
z
" transform="scale(0.015625)"/>
     </defs>
     <use xlink:href="#Inter-45"/>
     <use xlink:href="#Inter-76" x="59.801147"/>
     <use xlink:href="#Inter-65" x="115.482971"/>
     <use xlink:href="#Inter-6e" x="173.721619"/>
     <use xlink:href="#Inter-74" x="232.244354"/>
     <use xlink:href="#Inter-20" x="268.608002"/>
     <use xlink:href="#Inter-44" x="296.733002"/>
     <use xlink:href="#Inter-75" x="368.608017"/>
     <use xlink:href="#Inter-72" x="426.70462"/>
     <use xlink:href="#Inter-61" x="463.920532"/>
     <use xlink:href="#Inter-74" x="520.312592"/>
     <use xlink:href="#Inter-69" x="556.676239"/>
     <use xlink:href="#Inter-6f" x="580.397827"/>
     <use xlink:href="#Inter-6e" x="640.056931"/>
    </g>
   </g>
  </g>
 </g>
</svg>
