<?xml version="1.0" encoding="utf-8" standalone="no"?>
<!DOCTYPE svg PUBLIC "-//W3C//DTD SVG 1.1//EN"
  "http://www.w3.org/Graphics/SVG/1.1/DTD/svg11.dtd">
<svg xmlns:xlink="http://www.w3.org/1999/xlink" width="460.8pt" height="345.6pt" viewBox="0 0 460.8 345.6" xmlns="http://www.w3.org/2000/svg" version="1.1">
 <metadata>
  <rdf:RDF xmlns:dc="http://purl.org/dc/elements/1.1/" xmlns:cc="http://creativecommons.org/ns#" xmlns:rdf="http://www.w3.org/1999/02/22-rdf-syntax-ns#">
   <cc:Work>
    <dc:type rdf:resource="http://purl.org/dc/dcmitype/StillImage"/>
    <dc:date>2022-08-16T22:51:32.255243</dc:date>
    <dc:format>image/svg+xml</dc:format>
    <dc:creator>
     <cc:Agent>
      <dc:title>Matplotlib v3.5.2, https://matplotlib.org/</dc:title>
     </cc:Agent>
    </dc:creator>
   </cc:Work>
  </rdf:RDF>
 </metadata>
 <defs>
  <style type="text/css">*{stroke-linejoin: round; stroke-linecap: butt}</style>
 </defs>
 <g id="figure_1">
  <g id="patch_1">
   <path d="M 0 345.6 
L 460.8 345.6 
L 460.8 0 
L 0 0 
z
" style="fill: #262d35"/>
  </g>
  <g id="axes_1">
   <g id="patch_2">
    <path d="M 57.6 307.584 
L 414.72 307.584 
L 414.72 41.472 
L 57.6 41.472 
z
" style="fill: #262d35"/>
   </g>
   <g id="matplotlib.axis_1">
    <g id="xtick_1">
     <g id="line2d_1">
      <path d="M 73.832727 307.584 
L 73.832727 41.472 
" clip-path="url(#p6032b53c7c)" style="fill: none; stroke: #ffffff; stroke-opacity: 0.1; stroke-width: 0.8; stroke-linecap: round"/>
     </g>
     <g id="line2d_2"/>
     <g id="text_1">
      <!-- 0 -->
      <g style="fill: #ffffff" transform="translate(70.707727 318.357437)scale(0.1 -0.1)">
       <defs>
        <path id="Inter-30" d="M 2000 -64 
Q 1486 -64 1125 217 
Q 764 498 573 1033 
Q 382 1568 382 2327 
Q 382 3082 574 3617 
Q 766 4152 1128 4435 
Q 1491 4718 2000 4718 
Q 2509 4718 2871 4435 
Q 3234 4152 3426 3617 
Q 3618 3082 3618 2327 
Q 3618 1568 3427 1033 
Q 3236 498 2875 217 
Q 2514 -64 2000 -64 
z
M 2000 436 
Q 2509 436 2791 927 
Q 3073 1418 3073 2327 
Q 3073 2932 2944 3357 
Q 2816 3782 2576 4004 
Q 2336 4227 2000 4227 
Q 1496 4227 1211 3730 
Q 927 3234 927 2327 
Q 927 1723 1054 1300 
Q 1182 877 1421 656 
Q 1661 436 2000 436 
z
" transform="scale(0.015625)"/>
       </defs>
       <use xlink:href="#Inter-30"/>
      </g>
     </g>
    </g>
    <g id="xtick_2">
     <g id="line2d_3">
      <path d="M 149.032983 307.584 
L 149.032983 41.472 
" clip-path="url(#p6032b53c7c)" style="fill: none; stroke: #ffffff; stroke-opacity: 0.1; stroke-width: 0.8; stroke-linecap: round"/>
     </g>
     <g id="line2d_4"/>
     <g id="text_2">
      <!-- 10000 -->
      <g style="fill: #ffffff" transform="translate(134.210327 318.357437)scale(0.1 -0.1)">
       <defs>
        <path id="Inter-31" d="M 2118 4655 
L 2118 0 
L 1555 0 
L 1555 4064 
L 1527 4064 
L 391 3309 
L 391 3882 
L 1555 4655 
L 2118 4655 
z
" transform="scale(0.015625)"/>
       </defs>
       <use xlink:href="#Inter-31"/>
       <use xlink:href="#Inter-30" x="46.448868"/>
       <use xlink:href="#Inter-30" x="108.948883"/>
       <use xlink:href="#Inter-30" x="171.448898"/>
       <use xlink:href="#Inter-30" x="233.948914"/>
      </g>
     </g>
    </g>
    <g id="xtick_3">
     <g id="line2d_5">
      <path d="M 224.233239 307.584 
L 224.233239 41.472 
" clip-path="url(#p6032b53c7c)" style="fill: none; stroke: #ffffff; stroke-opacity: 0.1; stroke-width: 0.8; stroke-linecap: round"/>
     </g>
     <g id="line2d_6"/>
     <g id="text_3">
      <!-- 20000 -->
      <g style="fill: #ffffff" transform="translate(208.707458 318.357437)scale(0.1 -0.1)">
       <defs>
        <path id="Inter-32" d="M 482 0 
L 482 409 
L 2018 2091 
Q 2289 2386 2464 2605 
Q 2639 2825 2724 3019 
Q 2809 3214 2809 3427 
Q 2809 3673 2692 3852 
Q 2575 4032 2373 4129 
Q 2171 4227 1918 4227 
Q 1650 4227 1451 4117 
Q 1252 4007 1144 3809 
Q 1036 3611 1036 3345 
L 500 3345 
Q 500 3755 688 4064 
Q 877 4373 1203 4545 
Q 1530 4718 1936 4718 
Q 2346 4718 2661 4545 
Q 2977 4373 3156 4079 
Q 3336 3786 3336 3427 
Q 3336 3170 3244 2926 
Q 3152 2682 2926 2383 
Q 2700 2084 2300 1655 
L 1255 536 
L 1255 500 
L 3418 500 
L 3418 0 
L 482 0 
z
" transform="scale(0.015625)"/>
       </defs>
       <use xlink:href="#Inter-32"/>
       <use xlink:href="#Inter-30" x="60.511383"/>
       <use xlink:href="#Inter-30" x="123.011398"/>
       <use xlink:href="#Inter-30" x="185.511414"/>
       <use xlink:href="#Inter-30" x="248.011429"/>
      </g>
     </g>
    </g>
    <g id="xtick_4">
     <g id="line2d_7">
      <path d="M 299.433495 307.584 
L 299.433495 41.472 
" clip-path="url(#p6032b53c7c)" style="fill: none; stroke: #ffffff; stroke-opacity: 0.1; stroke-width: 0.8; stroke-linecap: round"/>
     </g>
     <g id="line2d_8"/>
     <g id="text_4">
      <!-- 30000 -->
      <g style="fill: #ffffff" transform="translate(283.751464 318.357437)scale(0.1 -0.1)">
       <defs>
        <path id="Inter-33" d="M 2055 -64 
Q 1605 -64 1253 90 
Q 902 245 696 521 
Q 491 798 473 1164 
L 1046 1164 
Q 1064 939 1200 776 
Q 1336 614 1556 525 
Q 1777 436 2046 436 
Q 2346 436 2577 540 
Q 2809 645 2941 831 
Q 3073 1018 3073 1264 
Q 3073 1520 2945 1717 
Q 2818 1914 2572 2025 
Q 2327 2136 1973 2136 
L 1600 2136 
L 1600 2636 
L 1973 2636 
Q 2250 2636 2460 2736 
Q 2671 2836 2790 3018 
Q 2909 3200 2909 3445 
Q 2909 3682 2804 3857 
Q 2700 4032 2510 4129 
Q 2321 4227 2064 4227 
Q 1823 4227 1610 4139 
Q 1398 4052 1264 3887 
Q 1130 3723 1118 3491 
L 573 3491 
Q 586 3857 793 4133 
Q 1000 4409 1335 4563 
Q 1671 4718 2073 4718 
Q 2505 4718 2814 4544 
Q 3123 4370 3289 4086 
Q 3455 3802 3455 3473 
Q 3455 3080 3249 2802 
Q 3043 2525 2691 2418 
L 2691 2382 
Q 3132 2309 3379 2008 
Q 3627 1707 3627 1264 
Q 3627 884 3421 583 
Q 3216 282 2861 109 
Q 2507 -64 2055 -64 
z
" transform="scale(0.015625)"/>
       </defs>
       <use xlink:href="#Inter-33"/>
       <use xlink:href="#Inter-30" x="63.636383"/>
       <use xlink:href="#Inter-30" x="126.136398"/>
       <use xlink:href="#Inter-30" x="188.636414"/>
       <use xlink:href="#Inter-30" x="251.136429"/>
      </g>
     </g>
    </g>
    <g id="xtick_5">
     <g id="line2d_9">
      <path d="M 374.633752 307.584 
L 374.633752 41.472 
" clip-path="url(#p6032b53c7c)" style="fill: none; stroke: #ffffff; stroke-opacity: 0.1; stroke-width: 0.8; stroke-linecap: round"/>
     </g>
     <g id="line2d_10"/>
     <g id="text_5">
      <!-- 40000 -->
      <g style="fill: #ffffff" transform="translate(358.923595 318.357437)scale(0.1 -0.1)">
       <defs>
        <path id="Inter-34" d="M 373 955 
L 373 1418 
L 2418 4655 
L 2755 4655 
L 2755 3936 
L 2527 3936 
L 982 1491 
L 982 1455 
L 3736 1455 
L 3736 955 
L 373 955 
z
M 2564 0 
L 2564 1095 
L 2564 1311 
L 2564 4655 
L 3100 4655 
L 3100 0 
L 2564 0 
z
" transform="scale(0.015625)"/>
       </defs>
       <use xlink:href="#Inter-34"/>
       <use xlink:href="#Inter-30" x="64.204559"/>
       <use xlink:href="#Inter-30" x="126.704575"/>
       <use xlink:href="#Inter-30" x="189.20459"/>
       <use xlink:href="#Inter-30" x="251.704605"/>
      </g>
     </g>
    </g>
    <g id="text_6">
     <!-- Time (3 hours) -->
     <g style="fill: #ffffff" transform="translate(201.571719 331.676187)scale(0.1 -0.1)">
      <defs>
       <path id="Inter-54" d="M 309 4155 
L 309 4655 
L 3800 4655 
L 3800 4155 
L 2336 4155 
L 2336 0 
L 1773 0 
L 1773 4155 
L 309 4155 
z
" transform="scale(0.015625)"/>
       <path id="Inter-69" d="M 491 0 
L 491 3491 
L 1027 3491 
L 1027 0 
L 491 0 
z
M 764 4073 
Q 607 4073 494 4179 
Q 382 4286 382 4436 
Q 382 4586 494 4693 
Q 607 4800 764 4800 
Q 921 4800 1033 4693 
Q 1146 4586 1146 4436 
Q 1146 4286 1033 4179 
Q 921 4073 764 4073 
z
" transform="scale(0.015625)"/>
       <path id="Inter-6d" d="M 491 0 
L 491 3491 
L 1009 3491 
L 1009 2945 
L 1055 2945 
Q 1164 3225 1407 3380 
Q 1650 3536 1991 3536 
Q 2336 3536 2567 3380 
Q 2798 3225 2927 2945 
L 2964 2945 
Q 3098 3216 3366 3376 
Q 3634 3536 4009 3536 
Q 4477 3536 4775 3244 
Q 5073 2952 5073 2336 
L 5073 0 
L 4536 0 
L 4536 2336 
Q 4536 2723 4325 2889 
Q 4114 3055 3827 3055 
Q 3459 3055 3257 2833 
Q 3055 2611 3055 2273 
L 3055 0 
L 2509 0 
L 2509 2391 
Q 2509 2689 2316 2872 
Q 2123 3055 1818 3055 
Q 1609 3055 1428 2943 
Q 1248 2832 1137 2635 
Q 1027 2439 1027 2182 
L 1027 0 
L 491 0 
z
" transform="scale(0.015625)"/>
       <path id="Inter-65" d="M 1955 -73 
Q 1450 -73 1085 151 
Q 721 375 524 778 
Q 327 1182 327 1718 
Q 327 2255 524 2665 
Q 721 3075 1074 3305 
Q 1427 3536 1900 3536 
Q 2173 3536 2439 3445 
Q 2705 3355 2923 3151 
Q 3141 2948 3270 2614 
Q 3400 2280 3400 1791 
L 3400 1564 
L 709 1564 
L 709 2027 
L 2855 2027 
Q 2855 2323 2738 2554 
Q 2621 2786 2406 2920 
Q 2191 3055 1900 3055 
Q 1580 3055 1347 2897 
Q 1114 2739 989 2486 
Q 864 2234 864 1945 
L 864 1636 
Q 864 1241 1001 967 
Q 1139 693 1384 551 
Q 1630 409 1955 409 
Q 2166 409 2337 469 
Q 2509 530 2634 651 
Q 2759 773 2827 955 
L 3346 809 
Q 3264 545 3070 346 
Q 2877 148 2593 37 
Q 2309 -73 1955 -73 
z
" transform="scale(0.015625)"/>
       <path id="Inter-20" transform="scale(0.015625)"/>
       <path id="Inter-28" d="M 682 1964 
Q 682 2823 906 3544 
Q 1130 4266 1546 4873 
L 2018 4873 
Q 1855 4648 1713 4319 
Q 1571 3991 1464 3599 
Q 1357 3207 1296 2788 
Q 1236 2370 1236 1964 
Q 1236 1423 1341 866 
Q 1446 309 1623 -168 
Q 1800 -645 2018 -945 
L 1546 -945 
Q 1130 -339 906 383 
Q 682 1105 682 1964 
z
" transform="scale(0.015625)"/>
       <path id="Inter-68" d="M 1027 2100 
L 1027 0 
L 491 0 
L 491 4655 
L 1027 4655 
L 1027 2945 
L 1073 2945 
Q 1196 3216 1442 3376 
Q 1689 3536 2100 3536 
Q 2457 3536 2725 3394 
Q 2993 3252 3142 2960 
Q 3291 2668 3291 2218 
L 3291 0 
L 2755 0 
L 2755 2182 
Q 2755 2598 2540 2826 
Q 2325 3055 1946 3055 
Q 1682 3055 1474 2943 
Q 1266 2832 1146 2618 
Q 1027 2405 1027 2100 
z
" transform="scale(0.015625)"/>
       <path id="Inter-6f" d="M 1909 -73 
Q 1436 -73 1080 152 
Q 725 377 526 781 
Q 327 1186 327 1727 
Q 327 2273 526 2679 
Q 725 3086 1080 3311 
Q 1436 3536 1909 3536 
Q 2382 3536 2737 3311 
Q 3093 3086 3292 2679 
Q 3491 2273 3491 1727 
Q 3491 1186 3292 781 
Q 3093 377 2737 152 
Q 2382 -73 1909 -73 
z
M 1909 409 
Q 2268 409 2500 593 
Q 2732 777 2843 1077 
Q 2955 1377 2955 1727 
Q 2955 2077 2843 2379 
Q 2732 2682 2500 2868 
Q 2268 3055 1909 3055 
Q 1550 3055 1318 2868 
Q 1086 2682 975 2379 
Q 864 2077 864 1727 
Q 864 1377 975 1077 
Q 1086 777 1318 593 
Q 1550 409 1909 409 
z
" transform="scale(0.015625)"/>
       <path id="Inter-75" d="M 2691 1427 
L 2691 3491 
L 3227 3491 
L 3227 0 
L 2691 0 
L 2691 591 
L 2655 591 
Q 2532 325 2273 140 
Q 2014 -45 1618 -45 
Q 1291 -45 1036 99 
Q 782 243 636 535 
Q 491 827 491 1273 
L 491 3491 
L 1027 3491 
L 1027 1309 
Q 1027 927 1242 700 
Q 1457 473 1791 473 
Q 1991 473 2199 575 
Q 2407 677 2549 888 
Q 2691 1100 2691 1427 
z
" transform="scale(0.015625)"/>
       <path id="Inter-72" d="M 491 0 
L 491 3491 
L 1009 3491 
L 1009 2964 
L 1046 2964 
Q 1141 3223 1391 3384 
Q 1641 3545 1955 3545 
Q 2014 3545 2102 3543 
Q 2191 3541 2236 3536 
L 2236 2991 
Q 2209 2998 2112 3012 
Q 2016 3027 1909 3027 
Q 1655 3027 1456 2921 
Q 1257 2816 1142 2630 
Q 1027 2445 1027 2209 
L 1027 0 
L 491 0 
z
" transform="scale(0.015625)"/>
       <path id="Inter-73" d="M 2964 2709 
L 2482 2573 
Q 2436 2693 2348 2808 
Q 2261 2923 2111 2998 
Q 1961 3073 1727 3073 
Q 1407 3073 1194 2926 
Q 982 2780 982 2555 
Q 982 2355 1127 2239 
Q 1273 2123 1582 2045 
L 2100 1918 
Q 2568 1805 2797 1572 
Q 3027 1339 3027 973 
Q 3027 673 2855 436 
Q 2684 200 2377 63 
Q 2071 -73 1664 -73 
Q 1130 -73 780 159 
Q 430 391 336 836 
L 846 964 
Q 918 682 1121 541 
Q 1325 400 1655 400 
Q 2030 400 2251 560 
Q 2473 720 2473 945 
Q 2473 1127 2345 1251 
Q 2218 1375 1955 1436 
L 1373 1573 
Q 893 1686 669 1926 
Q 446 2166 446 2527 
Q 446 2823 613 3050 
Q 780 3277 1069 3406 
Q 1359 3536 1727 3536 
Q 2246 3536 2542 3309 
Q 2839 3082 2964 2709 
z
" transform="scale(0.015625)"/>
       <path id="Inter-29" d="M 1636 1964 
Q 1636 1105 1412 383 
Q 1189 -339 773 -945 
L 300 -945 
Q 464 -720 606 -392 
Q 748 -64 854 328 
Q 961 720 1021 1139 
Q 1082 1559 1082 1964 
Q 1082 2505 977 3061 
Q 873 3618 695 4095 
Q 518 4573 300 4873 
L 773 4873 
Q 1189 4266 1412 3544 
Q 1636 2823 1636 1964 
z
" transform="scale(0.015625)"/>
      </defs>
      <use xlink:href="#Inter-54"/>
      <use xlink:href="#Inter-69" x="64.204559"/>
      <use xlink:href="#Inter-6d" x="87.926147"/>
      <use xlink:href="#Inter-65" x="174.857986"/>
      <use xlink:href="#Inter-20" x="233.096634"/>
      <use xlink:href="#Inter-28" x="261.221634"/>
      <use xlink:href="#Inter-33" x="297.443222"/>
      <use xlink:href="#Inter-20" x="361.079605"/>
      <use xlink:href="#Inter-68" x="389.204605"/>
      <use xlink:href="#Inter-6f" x="448.295532"/>
      <use xlink:href="#Inter-75" x="507.954636"/>
      <use xlink:href="#Inter-72" x="566.051239"/>
      <use xlink:href="#Inter-73" x="603.267151"/>
      <use xlink:href="#Inter-29" x="655.539886"/>
     </g>
    </g>
   </g>
   <g id="matplotlib.axis_2">
    <g id="ytick_1">
     <g id="line2d_11">
      <path d="M 57.6 53.457615 
L 414.72 53.457615 
" clip-path="url(#p6032b53c7c)" style="fill: none; stroke: #ffffff; stroke-opacity: 0.1; stroke-width: 0.8; stroke-linecap: round"/>
     </g>
     <g id="line2d_12"/>
     <g id="text_7">
      <!-- 0 -->
      <g style="fill: #ffffff" transform="translate(47.85 57.094333)scale(0.1 -0.1)">
       <use xlink:href="#Inter-30"/>
      </g>
     </g>
    </g>
    <g id="ytick_2">
     <g id="line2d_13">
      <path d="M 57.6 94.493102 
L 414.72 94.493102 
" clip-path="url(#p6032b53c7c)" style="fill: none; stroke: #ffffff; stroke-opacity: 0.1; stroke-width: 0.8; stroke-linecap: round"/>
     </g>
     <g id="line2d_14"/>
     <g id="text_8">
      <!-- 200 -->
      <g style="fill: #ffffff" transform="translate(35.548438 98.129821)scale(0.1 -0.1)">
       <use xlink:href="#Inter-32"/>
       <use xlink:href="#Inter-30" x="60.511383"/>
       <use xlink:href="#Inter-30" x="123.011398"/>
      </g>
     </g>
    </g>
    <g id="ytick_3">
     <g id="line2d_15">
      <path d="M 57.6 135.52859 
L 414.72 135.52859 
" clip-path="url(#p6032b53c7c)" style="fill: none; stroke: #ffffff; stroke-opacity: 0.1; stroke-width: 0.8; stroke-linecap: round"/>
     </g>
     <g id="line2d_16"/>
     <g id="text_9">
      <!-- 400 -->
      <g style="fill: #ffffff" transform="translate(35.179688 139.165309)scale(0.1 -0.1)">
       <use xlink:href="#Inter-34"/>
       <use xlink:href="#Inter-30" x="64.204559"/>
       <use xlink:href="#Inter-30" x="126.704575"/>
      </g>
     </g>
    </g>
    <g id="ytick_4">
     <g id="line2d_17">
      <path d="M 57.6 176.564078 
L 414.72 176.564078 
" clip-path="url(#p6032b53c7c)" style="fill: none; stroke: #ffffff; stroke-opacity: 0.1; stroke-width: 0.8; stroke-linecap: round"/>
     </g>
     <g id="line2d_18"/>
     <g id="text_10">
      <!-- 600 -->
      <g style="fill: #ffffff" transform="translate(35.364063 180.200797)scale(0.1 -0.1)">
       <defs>
        <path id="Inter-36" d="M 2027 -64 
Q 1741 -59 1454 45 
Q 1168 150 932 399 
Q 696 648 552 1074 
Q 409 1500 409 2145 
Q 409 2764 525 3242 
Q 641 3720 861 4048 
Q 1082 4377 1394 4547 
Q 1707 4718 2100 4718 
Q 2491 4718 2796 4562 
Q 3102 4407 3295 4129 
Q 3489 3852 3546 3491 
L 2991 3491 
Q 2914 3805 2691 4011 
Q 2468 4218 2100 4218 
Q 1559 4218 1249 3747 
Q 939 3277 936 2427 
L 973 2427 
Q 1100 2620 1276 2757 
Q 1452 2895 1666 2970 
Q 1880 3045 2118 3045 
Q 2518 3045 2850 2846 
Q 3182 2648 3382 2299 
Q 3582 1950 3582 1500 
Q 3582 1068 3389 710 
Q 3196 352 2847 142 
Q 2498 -68 2027 -64 
z
M 2027 436 
Q 2314 436 2542 579 
Q 2771 723 2903 964 
Q 3036 1205 3036 1500 
Q 3036 1789 2908 2026 
Q 2780 2264 2556 2404 
Q 2332 2545 2046 2545 
Q 1830 2545 1643 2460 
Q 1457 2375 1317 2227 
Q 1177 2080 1097 1890 
Q 1018 1700 1018 1491 
Q 1018 1214 1149 973 
Q 1280 732 1508 584 
Q 1736 436 2027 436 
z
" transform="scale(0.015625)"/>
       </defs>
       <use xlink:href="#Inter-36"/>
       <use xlink:href="#Inter-30" x="62.357971"/>
       <use xlink:href="#Inter-30" x="124.857986"/>
      </g>
     </g>
    </g>
    <g id="ytick_5">
     <g id="line2d_19">
      <path d="M 57.6 217.599566 
L 414.72 217.599566 
" clip-path="url(#p6032b53c7c)" style="fill: none; stroke: #ffffff; stroke-opacity: 0.1; stroke-width: 0.8; stroke-linecap: round"/>
     </g>
     <g id="line2d_20"/>
     <g id="text_11">
      <!-- 800 -->
      <g style="fill: #ffffff" transform="translate(35.434375 221.236285)scale(0.1 -0.1)">
       <defs>
        <path id="Inter-38" d="M 1973 -64 
Q 1505 -64 1147 103 
Q 789 270 589 564 
Q 389 859 391 1236 
Q 389 1532 507 1783 
Q 625 2034 830 2203 
Q 1036 2373 1291 2418 
L 1291 2445 
Q 957 2532 759 2821 
Q 561 3111 564 3482 
Q 561 3836 743 4115 
Q 925 4395 1244 4556 
Q 1564 4718 1973 4718 
Q 2377 4718 2695 4556 
Q 3014 4395 3197 4115 
Q 3380 3836 3382 3482 
Q 3380 3111 3181 2821 
Q 2982 2532 2655 2445 
L 2655 2418 
Q 2907 2373 3109 2203 
Q 3311 2034 3431 1783 
Q 3552 1532 3555 1236 
Q 3552 859 3351 564 
Q 3150 270 2794 103 
Q 2439 -64 1973 -64 
z
M 1973 436 
Q 2289 436 2518 538 
Q 2748 641 2873 827 
Q 2998 1014 3000 1264 
Q 2998 1527 2864 1729 
Q 2730 1932 2499 2048 
Q 2268 2164 1973 2164 
Q 1675 2164 1442 2048 
Q 1209 1932 1076 1729 
Q 943 1527 946 1264 
Q 943 1014 1067 827 
Q 1191 641 1423 538 
Q 1655 436 1973 436 
z
M 1973 2645 
Q 2223 2645 2417 2745 
Q 2611 2845 2722 3025 
Q 2834 3205 2836 3445 
Q 2834 3682 2725 3858 
Q 2616 4034 2423 4130 
Q 2230 4227 1973 4227 
Q 1711 4227 1516 4130 
Q 1321 4034 1214 3858 
Q 1107 3682 1109 3445 
Q 1107 3205 1217 3025 
Q 1327 2845 1522 2745 
Q 1718 2645 1973 2645 
z
" transform="scale(0.015625)"/>
       </defs>
       <use xlink:href="#Inter-38"/>
       <use xlink:href="#Inter-30" x="61.647736"/>
       <use xlink:href="#Inter-30" x="124.147751"/>
      </g>
     </g>
    </g>
    <g id="ytick_6">
     <g id="line2d_21">
      <path d="M 57.6 258.635054 
L 414.72 258.635054 
" clip-path="url(#p6032b53c7c)" style="fill: none; stroke: #ffffff; stroke-opacity: 0.1; stroke-width: 0.8; stroke-linecap: round"/>
     </g>
     <g id="line2d_22"/>
     <g id="text_12">
      <!-- 1000 -->
      <g style="fill: #ffffff" transform="translate(30.704687 262.271773)scale(0.1 -0.1)">
       <use xlink:href="#Inter-31"/>
       <use xlink:href="#Inter-30" x="46.448868"/>
       <use xlink:href="#Inter-30" x="108.948883"/>
       <use xlink:href="#Inter-30" x="171.448898"/>
      </g>
     </g>
    </g>
    <g id="ytick_7">
     <g id="line2d_23">
      <path d="M 57.6 299.670542 
L 414.72 299.670542 
" clip-path="url(#p6032b53c7c)" style="fill: none; stroke: #ffffff; stroke-opacity: 0.1; stroke-width: 0.8; stroke-linecap: round"/>
     </g>
     <g id="line2d_24"/>
     <g id="text_13">
      <!-- 1200 -->
      <g style="fill: #ffffff" transform="translate(30.903125 303.307261)scale(0.1 -0.1)">
       <use xlink:href="#Inter-31"/>
       <use xlink:href="#Inter-32" x="46.448868"/>
       <use xlink:href="#Inter-30" x="106.960251"/>
       <use xlink:href="#Inter-30" x="169.460266"/>
      </g>
     </g>
    </g>
    <g id="text_14">
     <!-- Distance (km) -->
     <g style="fill: #ffffff" transform="translate(24.659375 207.28425)rotate(-90)scale(0.1 -0.1)">
      <defs>
       <path id="Inter-44" d="M 2000 0 
L 564 0 
L 564 4655 
L 2064 4655 
Q 2741 4655 3223 4376 
Q 3705 4098 3961 3578 
Q 4218 3059 4218 2336 
Q 4218 1609 3959 1085 
Q 3700 561 3204 280 
Q 2709 0 2000 0 
z
M 1127 500 
L 1964 500 
Q 2541 500 2920 722 
Q 3300 945 3486 1356 
Q 3673 1768 3673 2336 
Q 3673 2900 3489 3308 
Q 3305 3716 2939 3935 
Q 2573 4155 2027 4155 
L 1127 4155 
L 1127 500 
z
" transform="scale(0.015625)"/>
       <path id="Inter-74" d="M 2009 3491 
L 2009 3036 
L 200 3036 
L 200 3491 
L 2009 3491 
z
M 727 4327 
L 1264 4327 
L 1264 1000 
Q 1264 773 1331 660 
Q 1398 548 1503 510 
Q 1609 473 1727 473 
Q 1816 473 1873 483 
Q 1930 493 1964 500 
L 2073 18 
Q 2018 -2 1920 -23 
Q 1823 -45 1673 -45 
Q 1446 -45 1228 52 
Q 1011 150 869 350 
Q 727 550 727 855 
L 727 4327 
z
" transform="scale(0.015625)"/>
       <path id="Inter-61" d="M 1518 -82 
Q 1186 -82 916 44 
Q 646 170 486 410 
Q 327 650 327 991 
Q 327 1291 445 1478 
Q 564 1666 761 1773 
Q 959 1880 1199 1933 
Q 1439 1986 1682 2018 
Q 2000 2059 2199 2080 
Q 2398 2102 2490 2154 
Q 2582 2207 2582 2336 
L 2582 2355 
Q 2582 2691 2399 2877 
Q 2216 3064 1846 3064 
Q 1461 3064 1243 2895 
Q 1025 2727 936 2536 
L 427 2718 
Q 564 3036 792 3214 
Q 1021 3393 1292 3464 
Q 1564 3536 1827 3536 
Q 1996 3536 2215 3496 
Q 2434 3457 2640 3334 
Q 2846 3211 2982 2963 
Q 3118 2716 3118 2300 
L 3118 0 
L 2582 0 
L 2582 473 
L 2555 473 
Q 2500 359 2373 229 
Q 2246 100 2034 9 
Q 1823 -82 1518 -82 
z
M 1600 400 
Q 1918 400 2137 525 
Q 2357 650 2469 847 
Q 2582 1045 2582 1264 
L 2582 1755 
Q 2548 1714 2433 1681 
Q 2318 1648 2169 1624 
Q 2021 1600 1881 1583 
Q 1741 1566 1655 1555 
Q 1446 1527 1265 1467 
Q 1084 1407 974 1287 
Q 864 1168 864 964 
Q 864 684 1072 542 
Q 1280 400 1600 400 
z
" transform="scale(0.015625)"/>
       <path id="Inter-6e" d="M 1027 2100 
L 1027 0 
L 491 0 
L 491 3491 
L 1009 3491 
L 1009 2945 
L 1055 2945 
Q 1177 3211 1427 3373 
Q 1677 3536 2073 3536 
Q 2427 3536 2693 3392 
Q 2959 3248 3107 2956 
Q 3255 2664 3255 2218 
L 3255 0 
L 2718 0 
L 2718 2182 
Q 2718 2593 2504 2824 
Q 2291 3055 1918 3055 
Q 1661 3055 1460 2943 
Q 1259 2832 1143 2618 
Q 1027 2405 1027 2100 
z
" transform="scale(0.015625)"/>
       <path id="Inter-63" d="M 1909 -73 
Q 1418 -73 1063 159 
Q 709 391 518 798 
Q 327 1205 327 1727 
Q 327 2259 524 2667 
Q 721 3075 1074 3305 
Q 1427 3536 1900 3536 
Q 2268 3536 2563 3400 
Q 2859 3264 3047 3018 
Q 3236 2773 3282 2445 
L 2746 2445 
Q 2684 2684 2474 2869 
Q 2264 3055 1909 3055 
Q 1596 3055 1360 2892 
Q 1125 2730 994 2435 
Q 864 2141 864 1745 
Q 864 1341 992 1041 
Q 1121 741 1356 575 
Q 1591 409 1909 409 
Q 2118 409 2288 482 
Q 2459 555 2577 691 
Q 2696 827 2746 1018 
L 3282 1018 
Q 3236 709 3058 462 
Q 2880 216 2588 71 
Q 2296 -73 1909 -73 
z
" transform="scale(0.015625)"/>
       <path id="Inter-6b" d="M 991 1273 
L 982 1936 
L 1091 1936 
L 2618 3491 
L 3282 3491 
L 1655 1845 
L 1609 1845 
L 991 1273 
z
M 491 0 
L 491 4655 
L 1027 4655 
L 1027 0 
L 491 0 
z
M 2709 0 
L 1346 1727 
L 1727 2100 
L 3391 0 
L 2709 0 
z
" transform="scale(0.015625)"/>
      </defs>
      <use xlink:href="#Inter-44"/>
      <use xlink:href="#Inter-69" x="71.875015"/>
      <use xlink:href="#Inter-73" x="95.596603"/>
      <use xlink:href="#Inter-74" x="147.869339"/>
      <use xlink:href="#Inter-61" x="184.232986"/>
      <use xlink:href="#Inter-6e" x="240.625046"/>
      <use xlink:href="#Inter-63" x="299.147781"/>
      <use xlink:href="#Inter-65" x="354.971649"/>
      <use xlink:href="#Inter-20" x="413.210297"/>
      <use xlink:href="#Inter-28" x="441.335297"/>
      <use xlink:href="#Inter-6b" x="477.556885"/>
      <use xlink:href="#Inter-6d" x="531.960297"/>
      <use xlink:href="#Inter-29" x="618.892136"/>
     </g>
    </g>
   </g>
   <g id="PathCollection_1">
    <defs>
     <path id="me9a365fb62" d="M 0 0.707107 
C 0.187527 0.707107 0.367398 0.632602 0.5 0.5 
C 0.632602 0.367398 0.707107 0.187527 0.707107 0 
C 0.707107 -0.187527 0.632602 -0.367398 0.5 -0.5 
C 0.367398 -0.632602 0.187527 -0.707107 0 -0.707107 
C -0.187527 -0.707107 -0.367398 -0.632602 -0.5 -0.5 
C -0.632602 -0.367398 -0.707107 -0.187527 -0.707107 0 
C -0.707107 0.187527 -0.632602 0.367398 -0.5 0.5 
C -0.367398 0.632602 -0.187527 0.707107 0 0.707107 
z
" style="stroke: #e28fff"/>
    </defs>
    <g clip-path="url(#p6032b53c7c)">
     <use xlink:href="#me9a365fb62" x="155.267085" y="77.614591" style="fill: #e28fff; stroke: #e28fff"/>
    </g>
   </g>
   <g id="PathCollection_2">
    <defs>
     <path id="m1e9f169669" d="M 0 0.707107 
C 0.187527 0.707107 0.367398 0.632602 0.5 0.5 
C 0.632602 0.367398 0.707107 0.187527 0.707107 0 
C 0.707107 -0.187527 0.632602 -0.367398 0.5 -0.5 
C 0.367398 -0.632602 0.187527 -0.707107 0 -0.707107 
C -0.187527 -0.707107 -0.367398 -0.632602 -0.5 -0.5 
C -0.632602 -0.367398 -0.707107 -0.187527 -0.707107 0 
C -0.707107 0.187527 -0.632602 0.367398 -0.5 0.5 
C -0.367398 0.632602 -0.187527 0.707107 0 0.707107 
z
" style="stroke: #9d7bff"/>
    </defs>
    <g clip-path="url(#p6032b53c7c)">
     <use xlink:href="#m1e9f169669" x="236.663842" y="125.629805" style="fill: #9d7bff; stroke: #9d7bff"/>
    </g>
   </g>
   <g id="PathCollection_3">
    <defs>
     <path id="mbacc74032d" d="M 0 0.707107 
C 0.187527 0.707107 0.367398 0.632602 0.5 0.5 
C 0.632602 0.367398 0.707107 0.187527 0.707107 0 
C 0.707107 -0.187527 0.632602 -0.367398 0.5 -0.5 
C 0.367398 -0.632602 0.187527 -0.707107 0 -0.707107 
C -0.187527 -0.707107 -0.367398 -0.632602 -0.5 -0.5 
C -0.632602 -0.367398 -0.707107 -0.187527 -0.707107 0 
C -0.707107 0.187527 -0.632602 0.367398 -0.5 0.5 
C -0.367398 0.632602 -0.187527 0.707107 0 0.707107 
z
" style="stroke: #7595ff"/>
    </defs>
    <g clip-path="url(#p6032b53c7c)">
     <use xlink:href="#mbacc74032d" x="317.692118" y="198.429633" style="fill: #7595ff; stroke: #7595ff"/>
    </g>
   </g>
   <g id="PathCollection_4">
    <defs>
     <path id="mafdecfe1a9" d="M 0 0.707107 
C 0.187527 0.707107 0.367398 0.632602 0.5 0.5 
C 0.632602 0.367398 0.707107 0.187527 0.707107 0 
C 0.707107 -0.187527 0.632602 -0.367398 0.5 -0.5 
C 0.367398 -0.632602 0.187527 -0.707107 0 -0.707107 
C -0.187527 -0.707107 -0.367398 -0.632602 -0.5 -0.5 
C -0.632602 -0.367398 -0.707107 -0.187527 -0.707107 0 
C -0.707107 0.187527 -0.632602 0.367398 -0.5 0.5 
C -0.367398 0.632602 -0.187527 0.707107 0 0.707107 
z
" style="stroke: #8cd4ff"/>
    </defs>
    <g clip-path="url(#p6032b53c7c)">
     <use xlink:href="#mafdecfe1a9" x="398.487273" y="295.488" style="fill: #8cd4ff; stroke: #8cd4ff"/>
    </g>
   </g>
   <g id="line2d_25">
    <path d="M 73.832727 53.568 
L 155.267085 77.614591 
" clip-path="url(#p6032b53c7c)" style="fill: none; stroke: #e28fff; stroke-linecap: round"/>
   </g>
   <g id="line2d_26">
    <path d="M 155.267085 77.614591 
L 236.663842 125.629805 
" clip-path="url(#p6032b53c7c)" style="fill: none; stroke: #9d7bff; stroke-linecap: round"/>
   </g>
   <g id="line2d_27">
    <path d="M 236.663842 125.629805 
L 317.692118 198.429633 
" clip-path="url(#p6032b53c7c)" style="fill: none; stroke: #7595ff; stroke-linecap: round"/>
   </g>
   <g id="line2d_28">
    <path d="M 317.692118 198.429633 
L 398.487273 295.488 
" clip-path="url(#p6032b53c7c)" style="fill: none; stroke: #8cd4ff; stroke-linecap: round"/>
   </g>
   <g id="patch_3">
    <path d="M 57.6 307.584 
L 57.6 41.472 
" style="fill: none"/>
   </g>
   <g id="patch_4">
    <path d="M 414.72 307.584 
L 414.72 41.472 
" style="fill: none"/>
   </g>
   <g id="patch_5">
    <path d="M 57.6 307.584 
L 414.72 307.584 
" style="fill: none"/>
   </g>
   <g id="patch_6">
    <path d="M 57.6 41.472 
L 414.72 41.472 
" style="fill: none"/>
   </g>
   <g id="text_15">
    <!-- River Propagation Time -->
    <g style="fill: #ffffff" transform="translate(170.074687 35.472)scale(0.12 -0.12)">
     <defs>
      <path id="Inter-52" d="M 564 0 
L 564 4655 
L 2136 4655 
Q 2682 4655 3032 4469 
Q 3382 4284 3550 3961 
Q 3718 3639 3718 3227 
Q 3718 2816 3550 2498 
Q 3382 2180 3034 1999 
Q 2686 1818 2146 1818 
L 873 1818 
L 873 2327 
L 2127 2327 
Q 2500 2327 2728 2436 
Q 2957 2545 3060 2746 
Q 3164 2948 3164 3227 
Q 3164 3507 3059 3716 
Q 2955 3925 2725 4040 
Q 2496 4155 2118 4155 
L 1127 4155 
L 1127 0 
L 564 0 
z
M 2755 2091 
L 3900 0 
L 3246 0 
L 2118 2091 
L 2755 2091 
z
" transform="scale(0.015625)"/>
      <path id="Inter-76" d="M 3346 3491 
L 2055 0 
L 1509 0 
L 218 3491 
L 800 3491 
L 1764 709 
L 1800 709 
L 2764 3491 
L 3346 3491 
z
" transform="scale(0.015625)"/>
      <path id="Inter-50" d="M 564 0 
L 564 4655 
L 2136 4655 
Q 2684 4655 3033 4458 
Q 3382 4261 3550 3927 
Q 3718 3593 3718 3182 
Q 3718 2770 3551 2434 
Q 3384 2098 3036 1899 
Q 2689 1700 2146 1700 
L 1018 1700 
L 1018 2200 
L 2127 2200 
Q 2502 2200 2729 2329 
Q 2957 2459 3060 2680 
Q 3164 2902 3164 3182 
Q 3164 3461 3060 3681 
Q 2957 3902 2727 4028 
Q 2498 4155 2118 4155 
L 1127 4155 
L 1127 0 
L 564 0 
z
" transform="scale(0.015625)"/>
      <path id="Inter-70" d="M 491 -1309 
L 491 3491 
L 1009 3491 
L 1009 2936 
L 1073 2936 
Q 1132 3027 1237 3169 
Q 1343 3311 1542 3423 
Q 1741 3536 2082 3536 
Q 2523 3536 2859 3315 
Q 3196 3095 3384 2690 
Q 3573 2286 3573 1736 
Q 3573 1182 3384 776 
Q 3196 370 2861 148 
Q 2527 -73 2091 -73 
Q 1755 -73 1552 39 
Q 1350 152 1241 296 
Q 1132 441 1073 536 
L 1027 536 
L 1027 -1309 
L 491 -1309 
z
M 1018 1745 
Q 1018 1350 1134 1049 
Q 1250 748 1473 578 
Q 1696 409 2018 409 
Q 2355 409 2581 587 
Q 2807 766 2921 1069 
Q 3036 1373 3036 1745 
Q 3036 2114 2923 2410 
Q 2811 2707 2585 2881 
Q 2359 3055 2018 3055 
Q 1691 3055 1468 2890 
Q 1246 2725 1132 2430 
Q 1018 2136 1018 1745 
z
" transform="scale(0.015625)"/>
      <path id="Inter-67" d="M 1900 -1382 
Q 1511 -1382 1231 -1283 
Q 952 -1184 767 -1024 
Q 582 -864 473 -682 
L 900 -382 
Q 973 -477 1084 -601 
Q 1196 -725 1390 -817 
Q 1584 -909 1900 -909 
Q 2323 -909 2598 -704 
Q 2873 -500 2873 -64 
L 2873 645 
L 2827 645 
Q 2768 550 2660 410 
Q 2552 270 2351 162 
Q 2150 55 1809 55 
Q 1386 55 1051 255 
Q 716 455 521 836 
Q 327 1218 327 1764 
Q 327 2300 516 2699 
Q 705 3098 1041 3317 
Q 1377 3536 1818 3536 
Q 2159 3536 2360 3423 
Q 2561 3311 2669 3169 
Q 2777 3027 2836 2936 
L 2891 2936 
L 2891 3491 
L 3409 3491 
L 3409 -100 
Q 3409 -550 3205 -833 
Q 3002 -1116 2660 -1249 
Q 2318 -1382 1900 -1382 
z
M 1882 536 
Q 2205 536 2427 684 
Q 2650 832 2766 1109 
Q 2882 1386 2882 1773 
Q 2882 2150 2768 2438 
Q 2655 2727 2432 2891 
Q 2209 3055 1882 3055 
Q 1541 3055 1315 2882 
Q 1089 2709 976 2418 
Q 864 2127 864 1773 
Q 864 1409 978 1130 
Q 1093 852 1319 694 
Q 1546 536 1882 536 
z
" transform="scale(0.015625)"/>
     </defs>
     <use xlink:href="#Inter-52"/>
     <use xlink:href="#Inter-69" x="63.920471"/>
     <use xlink:href="#Inter-76" x="87.642059"/>
     <use xlink:href="#Inter-65" x="143.323883"/>
     <use xlink:href="#Inter-72" x="201.562531"/>
     <use xlink:href="#Inter-20" x="238.778442"/>
     <use xlink:href="#Inter-50" x="266.903442"/>
     <use xlink:href="#Inter-72" x="330.397766"/>
     <use xlink:href="#Inter-6f" x="367.613678"/>
     <use xlink:href="#Inter-70" x="427.272781"/>
     <use xlink:href="#Inter-61" x="488.210297"/>
     <use xlink:href="#Inter-67" x="544.602356"/>
     <use xlink:href="#Inter-61" x="605.539871"/>
     <use xlink:href="#Inter-74" x="661.931931"/>
     <use xlink:href="#Inter-69" x="698.295578"/>
     <use xlink:href="#Inter-6f" x="722.017166"/>
     <use xlink:href="#Inter-6e" x="781.67627"/>
     <use xlink:href="#Inter-20" x="840.199005"/>
     <use xlink:href="#Inter-54" x="868.324005"/>
     <use xlink:href="#Inter-69" x="932.528564"/>
     <use xlink:href="#Inter-6d" x="956.250153"/>
     <use xlink:href="#Inter-65" x="1043.181992"/>
    </g>
   </g>
   <g id="legend_1">
    <g id="line2d_29">
     <path d="M 334.748125 54.245438 
L 344.748125 54.245438 
L 354.748125 54.245438 
" style="fill: none; stroke: #e28fff; stroke-linecap: round"/>
    </g>
    <g id="text_16">
     <!-- 3589078 -->
     <g style="fill: #ffffff" transform="translate(362.748125 57.745438)scale(0.1 -0.1)">
      <defs>
       <path id="Inter-35" d="M 1936 -64 
Q 1536 -64 1216 95 
Q 896 255 702 532 
Q 509 809 491 1164 
L 1036 1164 
Q 1068 848 1324 642 
Q 1580 436 1936 436 
Q 2223 436 2447 570 
Q 2671 705 2799 940 
Q 2927 1175 2927 1473 
Q 2927 1777 2794 2017 
Q 2661 2257 2429 2395 
Q 2198 2534 1900 2536 
Q 1686 2539 1461 2472 
Q 1236 2405 1091 2300 
L 564 2364 
L 846 4655 
L 3264 4655 
L 3264 4155 
L 1318 4155 
L 1155 2782 
L 1182 2782 
Q 1325 2895 1541 2970 
Q 1757 3045 1991 3045 
Q 2418 3045 2753 2842 
Q 3089 2639 3281 2286 
Q 3473 1934 3473 1482 
Q 3473 1036 3274 687 
Q 3075 339 2727 137 
Q 2380 -64 1936 -64 
z
" transform="scale(0.015625)"/>
       <path id="Inter-39" d="M 1964 4718 
Q 2250 4716 2536 4609 
Q 2823 4502 3059 4255 
Q 3296 4009 3439 3584 
Q 3582 3159 3582 2518 
Q 3582 1898 3465 1417 
Q 3348 936 3128 606 
Q 2909 277 2596 106 
Q 2284 -64 1891 -64 
Q 1500 -64 1194 92 
Q 889 248 694 526 
Q 500 805 446 1173 
L 1000 1173 
Q 1075 852 1299 644 
Q 1523 436 1891 436 
Q 2430 436 2742 906 
Q 3055 1377 3055 2236 
L 3018 2236 
Q 2891 2045 2716 1906 
Q 2541 1768 2327 1693 
Q 2114 1618 1873 1618 
Q 1473 1618 1140 1817 
Q 807 2016 608 2365 
Q 409 2714 409 3164 
Q 409 3591 601 3946 
Q 793 4302 1142 4513 
Q 1491 4725 1964 4718 
z
M 1964 4218 
Q 1677 4218 1449 4076 
Q 1221 3934 1088 3694 
Q 955 3455 955 3164 
Q 955 2873 1083 2635 
Q 1211 2398 1435 2258 
Q 1659 2118 1946 2118 
Q 2161 2118 2347 2203 
Q 2534 2289 2674 2437 
Q 2814 2586 2893 2776 
Q 2973 2966 2973 3173 
Q 2973 3445 2842 3684 
Q 2711 3923 2483 4070 
Q 2255 4218 1964 4218 
z
" transform="scale(0.015625)"/>
       <path id="Inter-37" d="M 627 0 
L 2709 4118 
L 2709 4155 
L 309 4155 
L 309 4655 
L 3291 4655 
L 3291 4127 
L 1218 0 
L 627 0 
z
" transform="scale(0.015625)"/>
      </defs>
      <use xlink:href="#Inter-33"/>
      <use xlink:href="#Inter-35" x="63.636383"/>
      <use xlink:href="#Inter-38" x="124.431854"/>
      <use xlink:href="#Inter-39" x="186.07959"/>
      <use xlink:href="#Inter-30" x="248.437561"/>
      <use xlink:href="#Inter-37" x="310.937576"/>
      <use xlink:href="#Inter-38" x="368.039856"/>
     </g>
    </g>
    <g id="line2d_30">
     <path d="M 334.748125 68.564188 
L 344.748125 68.564188 
L 354.748125 68.564188 
" style="fill: none; stroke: #9d7bff; stroke-linecap: round"/>
    </g>
    <g id="text_17">
     <!-- 1620061 -->
     <g style="fill: #ffffff" transform="translate(362.748125 72.064188)scale(0.1 -0.1)">
      <use xlink:href="#Inter-31"/>
      <use xlink:href="#Inter-36" x="46.448868"/>
      <use xlink:href="#Inter-32" x="108.806839"/>
      <use xlink:href="#Inter-30" x="169.318222"/>
      <use xlink:href="#Inter-30" x="231.818237"/>
      <use xlink:href="#Inter-36" x="294.318253"/>
      <use xlink:href="#Inter-31" x="356.676224"/>
     </g>
    </g>
    <g id="line2d_31">
     <path d="M 334.748125 82.882938 
L 344.748125 82.882938 
L 354.748125 82.882938 
" style="fill: none; stroke: #7595ff; stroke-linecap: round"/>
    </g>
    <g id="text_18">
     <!-- 1622735 -->
     <g style="fill: #ffffff" transform="translate(362.748125 86.382938)scale(0.1 -0.1)">
      <use xlink:href="#Inter-31"/>
      <use xlink:href="#Inter-36" x="46.448868"/>
      <use xlink:href="#Inter-32" x="108.806839"/>
      <use xlink:href="#Inter-32" x="169.318222"/>
      <use xlink:href="#Inter-37" x="229.829605"/>
      <use xlink:href="#Inter-33" x="286.931885"/>
      <use xlink:href="#Inter-35" x="350.568268"/>
     </g>
    </g>
    <g id="line2d_32">
     <path d="M 334.748125 97.201688 
L 344.748125 97.201688 
L 354.748125 97.201688 
" style="fill: none; stroke: #8cd4ff; stroke-linecap: round"/>
    </g>
    <g id="text_19">
     <!-- 1623211 -->
     <g style="fill: #ffffff" transform="translate(362.748125 100.701688)scale(0.1 -0.1)">
      <use xlink:href="#Inter-31"/>
      <use xlink:href="#Inter-36" x="46.448868"/>
      <use xlink:href="#Inter-32" x="108.806839"/>
      <use xlink:href="#Inter-33" x="169.318222"/>
      <use xlink:href="#Inter-32" x="232.954605"/>
      <use xlink:href="#Inter-31" x="293.465988"/>
      <use xlink:href="#Inter-31" x="339.914856"/>
     </g>
    </g>
   </g>
  </g>
 </g>
 <defs>
  <clipPath id="p6032b53c7c">
   <rect x="57.6" y="41.472" width="357.12" height="266.112"/>
  </clipPath>
 </defs>
</svg>
