<?xml version="1.0" encoding="utf-8" standalone="no"?>
<!DOCTYPE svg PUBLIC "-//W3C//DTD SVG 1.1//EN"
  "http://www.w3.org/Graphics/SVG/1.1/DTD/svg11.dtd">
<svg xmlns:xlink="http://www.w3.org/1999/xlink" width="460.8pt" height="345.6pt" viewBox="0 0 460.8 345.6" xmlns="http://www.w3.org/2000/svg" version="1.1">
 <metadata>
  <rdf:RDF xmlns:dc="http://purl.org/dc/elements/1.1/" xmlns:cc="http://creativecommons.org/ns#" xmlns:rdf="http://www.w3.org/1999/02/22-rdf-syntax-ns#">
   <cc:Work>
    <dc:type rdf:resource="http://purl.org/dc/dcmitype/StillImage"/>
    <dc:date>2022-08-05T13:51:30.822672</dc:date>
    <dc:format>image/svg+xml</dc:format>
    <dc:creator>
     <cc:Agent>
      <dc:title>Matplotlib v3.5.2, https://matplotlib.org/</dc:title>
     </cc:Agent>
    </dc:creator>
   </cc:Work>
  </rdf:RDF>
 </metadata>
 <defs>
  <style type="text/css">*{stroke-linejoin: round; stroke-linecap: butt}</style>
 </defs>
 <g id="figure_1">
  <g id="patch_1">
   <path d="M 0 345.6 
L 460.8 345.6 
L 460.8 0 
L 0 0 
z
" style="fill: #333333"/>
  </g>
  <g id="axes_1">
   <g id="patch_2">
    <path d="M 373.248 328.32 
L 419.328 328.32 
L 419.328 302.4 
L 373.248 302.4 
z
" style="fill: #f0852d"/>
   </g>
   <g id="matplotlib.axis_1"/>
   <g id="matplotlib.axis_2"/>
   <g id="patch_3">
    <path d="M 373.248 328.32 
L 373.248 302.4 
" style="fill: none"/>
   </g>
   <g id="patch_4">
    <path d="M 419.328 328.32 
L 419.328 302.4 
" style="fill: none"/>
   </g>
   <g id="patch_5">
    <path d="M 373.248 328.32 
L 419.328 328.32 
" style="fill: none"/>
   </g>
   <g id="patch_6">
    <path d="M 373.248 302.4 
L 419.328 302.4 
" style="fill: none"/>
   </g>
   <g id="text_1">
    <!-- Reset -->
    <g style="fill: #ffffff" transform="translate(384.291316 317.85066)scale(0.1 -0.1)">
     <defs>
      <path id="CMR17-52" d="M 2509 2146 
C 3117 2268 3629 2676 3629 3186 
C 3629 3785 2950 4326 2054 4326 
L 333 4326 
L 333 4160 
C 774 4160 845 4160 845 3873 
L 845 415 
C 845 128 774 128 333 128 
L 333 -26 
C 518 -26 851 -26 1050 -26 
C 1248 -26 1581 -26 1766 -26 
L 1766 128 
C 1325 128 1254 128 1254 417 
L 1254 2112 
L 2003 2112 
C 2368 2112 2573 1964 2662 1881 
C 2918 1632 2918 1459 2918 1024 
C 2918 595 2918 377 3110 160 
C 3354 -102 3680 -128 3821 -128 
C 4294 -128 4365 396 4365 503 
C 4365 540 4365 585 4307 585 
C 4256 585 4250 547 4250 522 
C 4218 112 4032 -26 3834 -26 
C 3482 -26 3443 375 3405 764 
C 3386 898 3373 993 3360 1133 
C 3322 1452 3270 1917 2509 2146 
z
M 1984 2214 
L 1254 2214 
L 1254 3913 
C 1254 4129 1267 4160 1523 4160 
L 1990 4160 
C 2522 4160 3142 3977 3142 3190 
C 3142 2372 2464 2214 1984 2214 
z
" transform="scale(0.015625)"/>
      <path id="CMR17-65" d="M 2438 1472 
C 2464 1498 2464 1511 2464 1576 
C 2464 2238 2118 2816 1389 2816 
C 710 2816 173 2169 173 1383 
C 173 551 781 -64 1459 -64 
C 2176 -64 2458 607 2458 740 
C 2458 784 2419 784 2406 784 
C 2362 784 2355 771 2330 696 
C 2189 265 1837 51 1504 51 
C 1229 51 954 203 781 480 
C 582 803 582 1176 582 1472 
L 2438 1472 
z
M 589 1568 
C 634 2505 1126 2714 1382 2714 
C 1818 2714 2112 2297 2118 1568 
L 589 1568 
z
" transform="scale(0.015625)"/>
      <path id="CMR17-73" d="M 1978 2697 
C 1978 2813 1971 2819 1933 2819 
C 1907 2819 1901 2813 1824 2717 
C 1805 2691 1747 2626 1728 2601 
C 1523 2819 1235 2819 1126 2819 
C 416 2819 160 2447 160 2076 
C 160 1498 813 1365 998 1325 
C 1402 1243 1542 1217 1677 1101 
C 1760 1025 1901 884 1901 654 
C 1901 384 1747 38 1158 38 
C 602 38 403 460 288 1021 
C 269 1110 269 1117 218 1117 
C 166 1117 160 1110 160 983 
L 160 63 
C 160 -51 166 -58 205 -58 
C 237 -58 243 -51 275 0 
C 314 57 410 211 448 276 
C 576 103 800 -64 1158 -64 
C 1792 -64 2131 283 2131 784 
C 2131 1112 1958 1285 1875 1362 
C 1683 1561 1459 1606 1190 1657 
C 838 1735 390 1825 390 2217 
C 390 2383 480 2737 1126 2737 
C 1811 2737 1850 2094 1862 1888 
C 1869 1856 1901 1849 1920 1849 
C 1978 1849 1978 1869 1978 1978 
L 1978 2697 
z
" transform="scale(0.015625)"/>
      <path id="CMR17-74" d="M 966 2560 
L 1862 2560 
L 1862 2725 
L 966 2725 
L 966 3904 
L 851 3904 
C 838 3245 614 2668 70 2668 
L 70 2560 
L 627 2560 
L 627 771 
C 627 650 627 -64 1370 -64 
C 1747 -64 1965 306 1965 777 
L 1965 1140 
L 1850 1140 
L 1850 783 
C 1850 344 1677 51 1408 51 
C 1222 51 966 178 966 758 
L 966 2560 
z
" transform="scale(0.015625)"/>
     </defs>
     <use xlink:href="#CMR17-52" transform="scale(0.996264)"/>
     <use xlink:href="#CMR17-65" transform="translate(67.791102 0)scale(0.996264)"/>
     <use xlink:href="#CMR17-73" transform="translate(108.276762 0)scale(0.996264)"/>
     <use xlink:href="#CMR17-65" transform="translate(144.0781 0)scale(0.996264)"/>
     <use xlink:href="#CMR17-74" transform="translate(184.563761 0)scale(0.996264)"/>
    </g>
   </g>
  </g>
  <g id="axes_2">
   <g id="patch_7">
    <path d="M 299.52 328.32 
L 368.64 328.32 
L 368.64 302.4 
L 299.52 302.4 
z
" style="fill: #f0852d"/>
   </g>
   <g id="matplotlib.axis_3"/>
   <g id="matplotlib.axis_4"/>
   <g id="patch_8">
    <path d="M 299.52 328.32 
L 299.52 302.4 
" style="fill: none"/>
   </g>
   <g id="patch_9">
    <path d="M 368.64 328.32 
L 368.64 302.4 
" style="fill: none"/>
   </g>
   <g id="patch_10">
    <path d="M 299.52 328.32 
L 368.64 328.32 
" style="fill: none"/>
   </g>
   <g id="patch_11">
    <path d="M 299.52 302.4 
L 368.64 302.4 
" style="fill: none"/>
   </g>
   <g id="text_2">
    <!-- Show Selected -->
    <g style="fill: #ffffff" transform="translate(303.223445 317.85066)scale(0.1 -0.1)">
     <defs>
      <path id="CMR17-53" d="M 2803 4290 
C 2803 4404 2797 4411 2758 4411 
C 2720 4411 2707 4385 2682 4328 
L 2490 3907 
C 2246 4257 1875 4416 1472 4416 
C 819 4416 294 3901 294 3253 
C 294 3056 339 2776 557 2510 
C 794 2218 1018 2167 1530 2033 
C 1722 1982 2042 1899 2106 1874 
C 2470 1722 2662 1341 2662 985 
C 2662 527 2336 38 1779 38 
C 1094 38 454 419 410 1311 
C 403 1413 397 1419 352 1419 
C 301 1419 294 1413 294 1285 
L 294 -1 
C 294 -115 301 -122 339 -122 
C 384 -122 397 -90 486 108 
C 493 127 493 140 614 381 
C 934 -39 1472 -128 1779 -128 
C 2477 -128 2970 451 2970 1124 
C 2970 1454 2848 1708 2778 1823 
C 2509 2230 2221 2306 1914 2382 
C 1869 2402 1856 2402 1498 2490 
C 1152 2579 1005 2624 845 2796 
C 666 2992 602 3196 602 3399 
C 602 3812 934 4263 1478 4263 
C 2157 4263 2579 3786 2675 2993 
C 2694 2878 2701 2872 2746 2872 
C 2803 2872 2803 2891 2803 2999 
L 2803 4290 
z
" transform="scale(0.015625)"/>
      <path id="CMR17-68" d="M 2656 1933 
C 2656 2259 2592 2790 1837 2790 
C 1312 2790 1056 2368 979 2157 
L 973 2157 
L 973 4396 
L 211 4326 
L 211 4160 
C 589 4160 646 4122 646 3817 
L 646 426 
C 646 184 621 153 211 153 
L 211 -13 
C 365 0 646 0 813 0 
C 979 0 1267 0 1421 -13 
L 1421 153 
C 1011 153 986 178 986 428 
L 986 1658 
C 986 2247 1344 2688 1792 2688 
C 2266 2688 2317 2266 2317 1958 
L 2317 428 
C 2317 184 2291 153 1882 153 
L 1882 -13 
C 2035 0 2317 0 2483 0 
C 2650 0 2938 0 3091 -13 
L 3091 153 
C 2682 153 2656 178 2656 428 
L 2656 1933 
z
" transform="scale(0.015625)"/>
      <path id="CMR17-6f" d="M 2758 1356 
C 2758 2176 2163 2816 1466 2816 
C 768 2816 173 2176 173 1356 
C 173 551 768 -64 1466 -64 
C 2163 -64 2758 551 2758 1356 
z
M 1466 51 
C 1165 51 909 230 762 480 
C 602 767 582 1126 582 1408 
C 582 1677 595 2010 762 2298 
C 890 2509 1139 2714 1466 2714 
C 1754 2714 1997 2554 2150 2330 
C 2349 2029 2349 1607 2349 1408 
C 2349 1158 2336 775 2163 467 
C 1984 173 1709 51 1466 51 
z
" transform="scale(0.015625)"/>
      <path id="CMR17-77" d="M 3725 2183 
C 3853 2560 4109 2560 4205 2560 
L 4205 2732 
C 4077 2732 3949 2732 3821 2732 
C 3699 2732 3424 2732 3315 2738 
L 3315 2560 
C 3514 2560 3622 2445 3622 2286 
C 3622 2241 3610 2184 3597 2140 
L 2995 407 
L 2342 2275 
C 2330 2319 2310 2370 2310 2395 
C 2310 2560 2528 2560 2630 2560 
L 2630 2738 
C 2483 2732 2214 2732 2061 2732 
C 1901 2732 1734 2732 1587 2738 
L 1587 2560 
C 1939 2560 1939 2547 2074 2149 
L 1485 451 
L 851 2281 
C 819 2363 819 2376 819 2395 
C 819 2560 1037 2560 1139 2560 
L 1139 2738 
C 986 2732 717 2732 557 2732 
C 416 2732 198 2732 64 2738 
L 64 2560 
C 346 2560 416 2541 486 2331 
L 1274 49 
C 1299 -33 1318 -52 1370 -52 
C 1414 -52 1440 -39 1472 56 
L 2131 1980 
L 2797 56 
C 2829 -39 2854 -52 2899 -52 
C 2950 -52 2970 -33 2995 50 
L 3725 2183 
z
" transform="scale(0.015625)"/>
      <path id="CMR17-6c" d="M 979 4396 
L 218 4326 
L 218 4160 
C 595 4160 653 4122 653 3817 
L 653 426 
C 653 184 627 153 218 153 
L 218 -13 
C 371 0 653 0 813 0 
C 979 0 1261 0 1414 -13 
L 1414 153 
C 1005 153 979 178 979 426 
L 979 4396 
z
" transform="scale(0.015625)"/>
      <path id="CMR17-63" d="M 2234 2240 
C 2112 2240 1933 2240 1933 2017 
C 1933 1838 2080 1787 2163 1787 
C 2208 1787 2394 1807 2394 2024 
C 2394 2467 1958 2803 1466 2803 
C 787 2803 211 2178 211 1363 
C 211 516 813 -64 1466 -64 
C 2259 -64 2458 677 2458 748 
C 2458 774 2451 793 2406 793 
C 2362 793 2355 787 2330 703 
C 2163 180 1798 51 1523 51 
C 1114 51 621 427 621 1369 
C 621 2338 1094 2688 1472 2688 
C 1722 2688 2093 2573 2234 2240 
z
" transform="scale(0.015625)"/>
      <path id="CMR17-64" d="M 1869 4326 
L 1869 4160 
C 2246 4160 2304 4122 2304 3820 
L 2304 2345 
C 2278 2377 2016 2790 1498 2790 
C 845 2790 211 2208 211 1364 
C 211 525 806 -64 1434 -64 
C 1978 -64 2259 337 2291 380 
L 2291 -63 
L 3066 -63 
L 3066 128 
C 2688 128 2630 166 2630 473 
L 2630 4396 
L 1869 4326 
z
M 2291 755 
C 2291 563 2176 390 2029 262 
C 1811 70 1594 38 1472 38 
C 1286 38 621 134 621 1356 
C 621 2612 1363 2688 1530 2688 
C 1824 2688 2061 2522 2208 2291 
C 2291 2157 2291 2138 2291 2023 
L 2291 755 
z
" transform="scale(0.015625)"/>
     </defs>
     <use xlink:href="#CMR17-53" transform="scale(0.996264)"/>
     <use xlink:href="#CMR17-68" transform="translate(50.89537 0)scale(0.996264)"/>
     <use xlink:href="#CMR17-6f" transform="translate(101.79074 0)scale(0.996264)"/>
     <use xlink:href="#CMR17-77" transform="translate(144.878763 0)scale(0.996264)"/>
     <use xlink:href="#CMR17-53" transform="translate(241.46461 0)scale(0.996264)"/>
     <use xlink:href="#CMR17-65" transform="translate(292.359979 0)scale(0.996264)"/>
     <use xlink:href="#CMR17-6c" transform="translate(332.84564 0)scale(0.996264)"/>
     <use xlink:href="#CMR17-65" transform="translate(357.716698 0)scale(0.996264)"/>
     <use xlink:href="#CMR17-63" transform="translate(398.202359 0)scale(0.996264)"/>
     <use xlink:href="#CMR17-74" transform="translate(438.688019 0)scale(0.996264)"/>
     <use xlink:href="#CMR17-65" transform="translate(473.968787 0)scale(0.996264)"/>
     <use xlink:href="#CMR17-64" transform="translate(514.454448 0)scale(0.996264)"/>
    </g>
   </g>
  </g>
  <g id="axes_3">
   <g id="patch_12">
    <path d="M 299.52 298.944 
L 368.64 298.944 
L 368.64 273.024 
L 299.52 273.024 
z
" style="fill: #f0852d"/>
   </g>
   <g id="matplotlib.axis_5"/>
   <g id="matplotlib.axis_6"/>
   <g id="patch_13">
    <path d="M 299.52 298.944 
L 299.52 273.024 
" style="fill: none"/>
   </g>
   <g id="patch_14">
    <path d="M 368.64 298.944 
L 368.64 273.024 
" style="fill: none"/>
   </g>
   <g id="patch_15">
    <path d="M 299.52 298.944 
L 368.64 298.944 
" style="fill: none"/>
   </g>
   <g id="patch_16">
    <path d="M 299.52 273.024 
L 368.64 273.024 
" style="fill: none"/>
   </g>
   <g id="text_3">
    <!-- All -->
    <g style="fill: #ffffff" transform="translate(327.576594 288.47466)scale(0.1 -0.1)">
     <defs>
      <path id="CMR17-41" d="M 2323 4378 
C 2291 4461 2278 4480 2214 4480 
C 2150 4480 2138 4461 2106 4378 
L 749 566 
C 627 223 371 153 147 153 
L 147 -13 
C 262 0 518 0 640 0 
C 800 0 1056 0 1210 -13 
L 1210 153 
C 909 153 864 361 864 439 
C 864 497 877 530 890 569 
L 1229 1536 
L 2906 1536 
L 3290 442 
C 3322 365 3322 352 3322 327 
C 3322 153 3046 153 2925 153 
L 2925 0 
C 3110 0 3443 0 3642 0 
C 3808 0 4128 0 4282 -13 
L 4282 153 
C 3942 153 3827 153 3744 387 
L 2323 4378 
z
M 2067 3893 
L 2848 1702 
L 1286 1702 
L 2067 3893 
z
" transform="scale(0.015625)"/>
     </defs>
     <use xlink:href="#CMR17-41" transform="scale(0.996264)"/>
     <use xlink:href="#CMR17-6c" transform="translate(69.07243 0)scale(0.996264)"/>
     <use xlink:href="#CMR17-6c" transform="translate(93.943488 0)scale(0.996264)"/>
    </g>
   </g>
  </g>
  <g id="axes_4">
   <g id="patch_17">
    <path d="M 299.52 269.568 
L 368.64 269.568 
L 368.64 243.648 
L 299.52 243.648 
z
" style="fill: #f0852d"/>
   </g>
   <g id="matplotlib.axis_7"/>
   <g id="matplotlib.axis_8"/>
   <g id="patch_18">
    <path d="M 299.52 269.568 
L 299.52 243.648 
" style="fill: none"/>
   </g>
   <g id="patch_19">
    <path d="M 368.64 269.568 
L 368.64 243.648 
" style="fill: none"/>
   </g>
   <g id="patch_20">
    <path d="M 299.52 269.568 
L 368.64 269.568 
" style="fill: none"/>
   </g>
   <g id="patch_21">
    <path d="M 299.52 243.648 
L 368.64 243.648 
" style="fill: none"/>
   </g>
   <g id="text_4">
    <!-- Set Threshold Level Percentage -->
    <g style="fill: #ffffff" transform="translate(161.178135 259.09866)scale(0.1 -0.1)">
     <defs>
      <path id="CMR17-54" d="M 3981 4326 
L 288 4326 
L 179 2918 
L 294 2918 
C 378 3976 467 4160 1453 4160 
C 1568 4160 1754 4160 1805 4154 
C 1926 4135 1926 4058 1926 3912 
L 1926 459 
C 1926 230 1907 160 1376 160 
L 1197 160 
L 1197 0 
C 1504 0 1824 0 2138 0 
C 2451 0 2771 0 3078 0 
L 3078 160 
L 2899 160 
C 2368 160 2349 230 2349 459 
L 2349 3912 
C 2349 4052 2349 4129 2464 4154 
C 2515 4160 2701 4160 2816 4160 
C 3795 4160 3891 3976 3974 2918 
L 4090 2918 
L 3981 4326 
z
" transform="scale(0.015625)"/>
      <path id="CMR17-72" d="M 960 1497 
C 960 2112 1222 2688 1702 2688 
C 1747 2688 1792 2682 1837 2662 
C 1837 2662 1696 2617 1696 2452 
C 1696 2298 1818 2234 1914 2234 
C 1990 2234 2131 2279 2131 2458 
C 2131 2663 1926 2790 1709 2790 
C 1222 2790 1011 2317 947 2093 
L 941 2093 
L 941 2790 
L 198 2720 
L 198 2554 
C 576 2554 634 2515 634 2208 
L 634 428 
C 634 184 608 153 198 153 
L 198 -13 
C 352 0 646 0 813 0 
C 998 0 1325 0 1498 -13 
L 1498 153 
C 1037 153 960 153 960 440 
L 960 1497 
z
" transform="scale(0.015625)"/>
      <path id="CMR17-4c" d="M 3469 1615 
L 3354 1615 
C 3302 983 3219 166 2125 166 
L 1530 166 
C 1274 166 1261 197 1261 414 
L 1261 3898 
C 1261 4129 1274 4192 1760 4192 
L 1901 4192 
L 1901 4352 
C 1638 4352 1331 4352 1069 4352 
C 870 4352 512 4352 326 4352 
L 326 4192 
C 768 4192 838 4192 838 3905 
L 838 452 
C 838 166 768 166 326 166 
L 326 0 
L 3315 0 
L 3469 1615 
z
" transform="scale(0.015625)"/>
      <path id="CMR17-76" d="M 2502 2163 
C 2560 2304 2662 2560 3034 2560 
L 3034 2726 
C 2912 2726 2752 2726 2630 2726 
C 2496 2726 2285 2726 2157 2732 
L 2157 2566 
C 2317 2553 2406 2477 2406 2311 
C 2406 2253 2406 2240 2368 2151 
L 1664 377 
L 902 2286 
C 864 2369 864 2381 864 2407 
C 864 2560 1075 2560 1171 2560 
L 1171 2732 
C 1018 2726 736 2726 576 2726 
C 403 2726 205 2726 64 2732 
L 64 2560 
C 307 2560 442 2560 518 2362 
L 1446 44 
C 1485 -51 1491 -64 1549 -64 
C 1606 -64 1613 -51 1651 44 
L 2502 2163 
z
" transform="scale(0.015625)"/>
      <path id="CMR17-50" d="M 1267 2042 
L 2291 2042 
C 3117 2042 3718 2578 3718 3184 
C 3718 3791 3130 4352 2291 4352 
L 333 4352 
L 333 4186 
C 774 4186 845 4186 845 3899 
L 845 446 
C 845 160 774 160 333 160 
L 333 0 
C 518 0 858 0 1056 0 
C 1254 0 1594 0 1779 0 
L 1779 160 
C 1338 160 1267 160 1267 446 
L 1267 2042 
z
M 1254 2176 
L 1254 3938 
C 1254 4155 1267 4186 1523 4186 
L 2170 4186 
C 2995 4186 3232 3714 3232 3184 
C 3232 2604 2950 2176 2170 2176 
L 1254 2176 
z
" transform="scale(0.015625)"/>
      <path id="CMR17-6e" d="M 2656 1933 
C 2656 2259 2592 2790 1837 2790 
C 1331 2790 1069 2400 973 2144 
L 966 2144 
L 966 2790 
L 211 2720 
L 211 2554 
C 589 2554 646 2515 646 2208 
L 646 428 
C 646 184 621 153 211 153 
L 211 -13 
C 365 0 646 0 813 0 
C 979 0 1267 0 1421 -13 
L 1421 153 
C 1011 153 986 178 986 428 
L 986 1658 
C 986 2247 1344 2688 1792 2688 
C 2266 2688 2317 2266 2317 1958 
L 2317 428 
C 2317 184 2291 153 1882 153 
L 1882 -13 
C 2035 0 2317 0 2483 0 
C 2650 0 2938 0 3091 -13 
L 3091 153 
C 2682 153 2656 178 2656 428 
L 2656 1933 
z
" transform="scale(0.015625)"/>
      <path id="CMR17-61" d="M 2304 1653 
C 2304 2072 2304 2294 2035 2543 
C 1798 2752 1523 2816 1306 2816 
C 800 2816 435 2407 435 1971 
C 435 1728 627 1728 666 1728 
C 749 1728 896 1778 896 1954 
C 896 2112 774 2181 666 2181 
C 640 2181 608 2174 589 2168 
C 723 2592 1069 2714 1293 2714 
C 1613 2714 1965 2429 1965 1885 
L 1965 1600 
C 1587 1600 1133 1549 774 1357 
C 371 1133 256 813 256 570 
C 256 77 832 -64 1171 -64 
C 1523 -64 1850 139 1990 511 
C 2003 233 2182 -18 2464 -18 
C 2598 -18 2938 70 2938 567 
L 2938 920 
L 2822 920 
L 2822 562 
C 2822 178 2650 128 2566 128 
C 2304 128 2304 458 2304 738 
L 2304 1653 
z
M 1965 870 
C 1965 317 1568 38 1216 38 
C 896 38 646 275 646 570 
C 646 761 730 1100 1101 1305 
C 1408 1478 1760 1504 1965 1504 
L 1965 870 
z
" transform="scale(0.015625)"/>
      <path id="CMR17-67" d="M 710 1164 
C 832 1068 1043 960 1299 960 
C 1805 960 2240 1357 2240 1888 
C 2240 2054 2189 2310 1997 2509 
C 2176 2692 2438 2752 2586 2752 
C 2611 2752 2650 2752 2682 2734 
C 2656 2728 2598 2703 2598 2605 
C 2598 2527 2656 2471 2739 2471 
C 2835 2471 2886 2533 2886 2614 
C 2886 2731 2790 2854 2586 2854 
C 2330 2854 2106 2738 1926 2580 
C 1734 2753 1504 2816 1299 2816 
C 794 2816 358 2419 358 1888 
C 358 1522 570 1292 634 1228 
C 442 1004 442 743 442 711 
C 442 545 506 302 723 168 
C 390 85 128 -169 128 -486 
C 128 -943 736 -1280 1466 -1280 
C 2170 -1280 2803 -956 2803 -479 
C 2803 384 1856 384 1363 384 
C 1216 384 954 384 922 391 
C 723 423 589 602 589 826 
C 589 883 589 1024 710 1164 
z
M 1299 1068 
C 736 1068 736 1760 736 1889 
C 736 2016 736 2708 1299 2708 
C 1862 2708 1862 2016 1862 1889 
C 1862 1760 1862 1068 1299 1068 
z
M 1466 -1171 
C 826 -1171 384 -835 384 -486 
C 384 -289 493 -105 634 -4 
C 794 104 858 104 1293 104 
C 1818 104 2547 104 2547 -486 
C 2547 -835 2106 -1171 1466 -1171 
z
" transform="scale(0.015625)"/>
     </defs>
     <use xlink:href="#CMR17-53" transform="scale(0.996264)"/>
     <use xlink:href="#CMR17-65" transform="translate(50.89537 0)scale(0.996264)"/>
     <use xlink:href="#CMR17-74" transform="translate(91.38103 0)scale(0.996264)"/>
     <use xlink:href="#CMR17-54" transform="translate(156.737764 0)scale(0.996264)"/>
     <use xlink:href="#CMR17-68" transform="translate(223.247645 0)scale(0.996264)"/>
     <use xlink:href="#CMR17-72" transform="translate(274.143015 0)scale(0.996264)"/>
     <use xlink:href="#CMR17-65" transform="translate(309.423783 0)scale(0.996264)"/>
     <use xlink:href="#CMR17-73" transform="translate(349.909443 0)scale(0.996264)"/>
     <use xlink:href="#CMR17-68" transform="translate(385.710781 0)scale(0.996264)"/>
     <use xlink:href="#CMR17-6f" transform="translate(436.60615 0)scale(0.996264)"/>
     <use xlink:href="#CMR17-6c" transform="translate(482.296628 0)scale(0.996264)"/>
     <use xlink:href="#CMR17-64" transform="translate(507.167686 0)scale(0.996264)"/>
     <use xlink:href="#CMR17-4c" transform="translate(588.139022 0)scale(0.996264)"/>
     <use xlink:href="#CMR17-65" transform="translate(645.52043 0)scale(0.996264)"/>
     <use xlink:href="#CMR17-76" transform="translate(686.00609 0)scale(0.996264)"/>
     <use xlink:href="#CMR17-65" transform="translate(731.696552 0)scale(0.996264)"/>
     <use xlink:href="#CMR17-6c" transform="translate(772.182213 0)scale(0.996264)"/>
     <use xlink:href="#CMR17-50" transform="translate(827.129238 0)scale(0.996264)"/>
     <use xlink:href="#CMR17-65" transform="translate(887.113084 0)scale(0.996264)"/>
     <use xlink:href="#CMR17-72" transform="translate(927.598745 0)scale(0.996264)"/>
     <use xlink:href="#CMR17-63" transform="translate(962.879512 0)scale(0.996264)"/>
     <use xlink:href="#CMR17-65" transform="translate(1003.365173 0)scale(0.996264)"/>
     <use xlink:href="#CMR17-6e" transform="translate(1043.850833 0)scale(0.996264)"/>
     <use xlink:href="#CMR17-74" transform="translate(1092.143749 0)scale(0.996264)"/>
     <use xlink:href="#CMR17-61" transform="translate(1127.424517 0)scale(0.996264)"/>
     <use xlink:href="#CMR17-67" transform="translate(1173.114994 0)scale(0.996264)"/>
     <use xlink:href="#CMR17-65" transform="translate(1218.805471 0)scale(0.996264)"/>
    </g>
   </g>
   <g id="text_5">
    <!-- 1 -->
    <g style="fill: #ffffff" transform="translate(331.589332 259.09866)scale(0.1 -0.1)">
     <defs>
      <path id="CMR17-31" d="M 1702 4058 
C 1702 4192 1696 4192 1606 4192 
C 1357 3916 979 3827 621 3827 
C 602 3827 570 3827 563 3808 
C 557 3795 557 3782 557 3648 
C 755 3648 1088 3686 1344 3839 
L 1344 461 
C 1344 236 1331 160 781 160 
L 589 160 
L 589 0 
C 896 0 1216 0 1523 0 
C 1830 0 2150 0 2458 0 
L 2458 160 
L 2266 160 
C 1715 160 1702 230 1702 458 
L 1702 4058 
z
" transform="scale(0.015625)"/>
     </defs>
     <use xlink:href="#CMR17-31" transform="scale(0.996264)"/>
    </g>
   </g>
  </g>
  <g id="axes_5">
   <g id="patch_22">
    <path d="M 299.52 240.192 
L 368.64 240.192 
L 368.64 214.272 
L 299.52 214.272 
z
" style="fill: #f0852d"/>
   </g>
   <g id="matplotlib.axis_9"/>
   <g id="matplotlib.axis_10"/>
   <g id="patch_23">
    <path d="M 299.52 240.192 
L 299.52 214.272 
" style="fill: none"/>
   </g>
   <g id="patch_24">
    <path d="M 368.64 240.192 
L 368.64 214.272 
" style="fill: none"/>
   </g>
   <g id="patch_25">
    <path d="M 299.52 240.192 
L 368.64 240.192 
" style="fill: none"/>
   </g>
   <g id="patch_26">
    <path d="M 299.52 214.272 
L 368.64 214.272 
" style="fill: none"/>
   </g>
   <g id="text_6">
    <!-- Enter \# of River Reaches -->
    <g style="fill: #ffffff" transform="translate(186.776645 229.72266)scale(0.1 -0.1)">
     <defs>
      <path id="CMR17-45" d="M 3885 1615 
L 3770 1615 
C 3629 676 3546 166 2419 166 
L 1530 166 
C 1274 166 1261 197 1261 414 
L 1261 2176 
L 1862 2176 
C 2464 2176 2522 1960 2522 1430 
L 2637 1430 
L 2637 3081 
L 2522 3081 
C 2522 2557 2464 2342 1862 2342 
L 1261 2342 
L 1261 3913 
C 1261 4128 1274 4160 1530 4160 
L 2406 4160 
C 3398 4160 3514 3769 3603 2929 
L 3718 2929 
L 3565 4325 
L 326 4325 
L 326 4160 
C 768 4160 838 4160 838 3874 
L 838 451 
C 838 166 768 166 326 166 
L 326 0 
L 3654 0 
L 3885 1615 
z
" transform="scale(0.015625)"/>
      <path id="CMR17-23" d="M 3104 896 
L 4422 896 
C 4531 896 4640 896 4640 1011 
C 4640 1119 4544 1119 4448 1119 
L 3168 1119 
L 3386 2017 
L 4448 2017 
C 4544 2017 4640 2017 4640 2125 
C 4640 2240 4531 2240 4422 2240 
L 3450 2240 
L 3942 4184 
C 3962 4248 3968 4280 3968 4300 
C 3968 4364 3917 4416 3853 4416 
C 3763 4416 3744 4326 3731 4275 
L 3219 2240 
L 2061 2240 
L 2554 4184 
C 2573 4248 2579 4280 2579 4300 
C 2579 4364 2528 4416 2464 4416 
C 2374 4416 2355 4326 2342 4275 
L 1830 2240 
L 512 2240 
C 403 2240 294 2240 294 2125 
C 294 2017 390 2017 486 2017 
L 1766 2017 
L 1549 1119 
L 486 1119 
C 390 1119 294 1119 294 1011 
C 294 896 403 896 512 896 
L 1485 896 
L 992 -1020 
C 973 -1083 966 -1114 966 -1134 
C 966 -1197 1018 -1248 1082 -1248 
C 1171 -1248 1190 -1159 1203 -1109 
L 1715 896 
L 2874 896 
L 2381 -1020 
C 2362 -1083 2355 -1114 2355 -1134 
C 2355 -1197 2406 -1248 2470 -1248 
C 2560 -1248 2579 -1159 2592 -1109 
L 3104 896 
z
M 1779 1119 
L 1997 2017 
L 3155 2017 
L 2938 1119 
L 1779 1119 
z
" transform="scale(0.015625)"/>
      <path id="CMR17-66" d="M 979 2560 
L 1709 2560 
L 1709 2725 
L 966 2725 
L 966 3494 
C 966 4022 1235 4352 1510 4352 
C 1594 4352 1690 4327 1754 4282 
C 1702 4269 1568 4225 1568 4067 
C 1568 3901 1696 3850 1786 3850 
C 1875 3850 2003 3901 2003 4067 
C 2003 4308 1773 4454 1517 4454 
C 1152 4454 653 4156 653 3481 
L 653 2725 
L 141 2725 
L 141 2560 
L 653 2560 
L 653 427 
C 653 184 627 153 218 153 
L 218 -13 
C 371 0 666 0 832 0 
C 1018 0 1344 0 1517 -13 
L 1517 153 
C 1056 153 979 153 979 439 
L 979 2560 
z
" transform="scale(0.015625)"/>
      <path id="CMR17-69" d="M 992 3909 
C 992 4049 877 4170 730 4170 
C 589 4170 467 4056 467 3909 
C 467 3769 582 3648 730 3648 
C 870 3648 992 3763 992 3909 
z
M 243 2706 
L 243 2541 
C 602 2541 653 2502 653 2197 
L 653 427 
C 653 184 627 153 218 153 
L 218 -13 
C 371 0 646 0 806 0 
C 960 0 1222 0 1370 -13 
L 1370 153 
C 992 153 979 191 979 420 
L 979 2776 
L 243 2706 
z
" transform="scale(0.015625)"/>
     </defs>
     <use xlink:href="#CMR17-45" transform="scale(0.996264)"/>
     <use xlink:href="#CMR17-6e" transform="translate(62.586301 0)scale(0.996264)"/>
     <use xlink:href="#CMR17-74" transform="translate(110.879216 0)scale(0.996264)"/>
     <use xlink:href="#CMR17-65" transform="translate(146.159984 0)scale(0.996264)"/>
     <use xlink:href="#CMR17-72" transform="translate(186.645645 0)scale(0.996264)"/>
     <use xlink:href="#CMR17-23" transform="translate(252.002379 0)scale(0.996264)"/>
     <use xlink:href="#CMR17-6f" transform="translate(358.997935 0)scale(0.996264)"/>
     <use xlink:href="#CMR17-66" transform="translate(404.688412 0)scale(0.996264)"/>
     <use xlink:href="#CMR17-52" transform="translate(462.237891 0)scale(0.996264)"/>
     <use xlink:href="#CMR17-69" transform="translate(530.028993 0)scale(0.996264)"/>
     <use xlink:href="#CMR17-76" transform="translate(554.900051 0)scale(0.996264)"/>
     <use xlink:href="#CMR17-65" transform="translate(600.590513 0)scale(0.996264)"/>
     <use xlink:href="#CMR17-72" transform="translate(641.076174 0)scale(0.996264)"/>
     <use xlink:href="#CMR17-52" transform="translate(706.432908 0)scale(0.996264)"/>
     <use xlink:href="#CMR17-65" transform="translate(774.22401 0)scale(0.996264)"/>
     <use xlink:href="#CMR17-61" transform="translate(814.70967 0)scale(0.996264)"/>
     <use xlink:href="#CMR17-63" transform="translate(860.400147 0)scale(0.996264)"/>
     <use xlink:href="#CMR17-68" transform="translate(898.283354 0)scale(0.996264)"/>
     <use xlink:href="#CMR17-65" transform="translate(949.178724 0)scale(0.996264)"/>
     <use xlink:href="#CMR17-73" transform="translate(989.664384 0)scale(0.996264)"/>
    </g>
   </g>
   <g id="text_7">
    <!-- 5 -->
    <g style="fill: #ffffff" transform="translate(331.589332 229.72266)scale(0.1 -0.1)">
     <defs>
      <path id="CMR17-35" d="M 730 3692 
C 794 3666 1056 3584 1325 3584 
C 1920 3584 2246 3911 2432 4100 
C 2432 4157 2432 4192 2394 4192 
C 2387 4192 2374 4192 2323 4163 
C 2099 4058 1837 3973 1517 3973 
C 1325 3973 1037 3999 723 4139 
C 653 4171 640 4171 634 4171 
C 602 4171 595 4164 595 4037 
L 595 2203 
C 595 2089 595 2057 659 2057 
C 691 2057 704 2070 736 2114 
C 941 2401 1222 2522 1542 2522 
C 1766 2522 2246 2382 2246 1289 
C 2246 1085 2246 715 2054 421 
C 1894 159 1645 25 1370 25 
C 947 25 518 320 403 814 
C 429 807 480 795 506 795 
C 589 795 749 840 749 1038 
C 749 1210 627 1280 506 1280 
C 358 1280 262 1190 262 1011 
C 262 454 704 -128 1382 -128 
C 2042 -128 2669 440 2669 1264 
C 2669 2030 2170 2624 1549 2624 
C 1222 2624 947 2503 730 2274 
L 730 3692 
z
" transform="scale(0.015625)"/>
     </defs>
     <use xlink:href="#CMR17-35" transform="scale(0.996264)"/>
    </g>
   </g>
  </g>
  <g id="axes_6">
   <g id="patch_27">
    <path d="M 299.52 210.816 
L 368.64 210.816 
L 368.64 184.896 
L 299.52 184.896 
z
" style="fill: #f0852d"/>
   </g>
   <g id="matplotlib.axis_11"/>
   <g id="matplotlib.axis_12"/>
   <g id="patch_28">
    <path d="M 299.52 210.816 
L 299.52 184.896 
" style="fill: none"/>
   </g>
   <g id="patch_29">
    <path d="M 368.64 210.816 
L 368.64 184.896 
" style="fill: none"/>
   </g>
   <g id="patch_30">
    <path d="M 299.52 210.816 
L 368.64 210.816 
" style="fill: none"/>
   </g>
   <g id="patch_31">
    <path d="M 299.52 184.896 
L 368.64 184.896 
" style="fill: none"/>
   </g>
   <g id="text_8">
    <!-- Enter a Distance Between Reaches -->
    <g style="fill: #ffffff" transform="translate(147.590235 200.34666)scale(0.1 -0.1)">
     <defs>
      <path id="CMR17-44" d="M 333 4352 
L 333 4186 
C 774 4186 845 4186 845 3900 
L 845 452 
C 845 166 774 166 333 166 
L 333 0 
L 2368 0 
C 3398 0 4224 943 4224 2141 
C 4224 3346 3411 4352 2368 4352 
L 333 4352 
z
M 1523 166 
C 1267 166 1254 197 1254 414 
L 1254 3938 
C 1254 4155 1267 4186 1523 4186 
L 2240 4186 
C 2771 4186 3750 3874 3750 2141 
C 3750 1242 3488 879 3366 707 
C 3213 510 2848 166 2240 166 
L 1523 166 
z
" transform="scale(0.015625)"/>
      <path id="CMR17-42" d="M 333 4352 
L 333 4186 
C 774 4186 845 4186 845 3900 
L 845 452 
C 845 166 774 166 333 166 
L 333 0 
L 2534 0 
C 3354 0 3885 583 3885 1164 
C 3885 1741 3360 2233 2675 2233 
C 3290 2356 3718 2771 3718 3264 
C 3718 3802 3194 4352 2368 4352 
L 333 4352 
z
M 1248 2304 
L 1248 3937 
C 1248 4155 1261 4186 1517 4186 
L 2336 4186 
C 2970 4186 3251 3674 3251 3277 
C 3251 2791 2861 2304 2170 2304 
L 1248 2304 
z
M 1517 166 
C 1261 166 1248 197 1248 413 
L 1248 2202 
L 2432 2202 
C 3091 2202 3411 1625 3411 1162 
C 3411 699 3046 166 2349 166 
L 1517 166 
z
" transform="scale(0.015625)"/>
     </defs>
     <use xlink:href="#CMR17-45" transform="scale(0.996264)"/>
     <use xlink:href="#CMR17-6e" transform="translate(62.586301 0)scale(0.996264)"/>
     <use xlink:href="#CMR17-74" transform="translate(110.879216 0)scale(0.996264)"/>
     <use xlink:href="#CMR17-65" transform="translate(146.159984 0)scale(0.996264)"/>
     <use xlink:href="#CMR17-72" transform="translate(186.645645 0)scale(0.996264)"/>
     <use xlink:href="#CMR17-61" transform="translate(252.002379 0)scale(0.996264)"/>
     <use xlink:href="#CMR17-44" transform="translate(327.768822 0)scale(0.996264)"/>
     <use xlink:href="#CMR17-69" transform="translate(398.162378 0)scale(0.996264)"/>
     <use xlink:href="#CMR17-73" transform="translate(423.033437 0)scale(0.996264)"/>
     <use xlink:href="#CMR17-74" transform="translate(458.834774 0)scale(0.996264)"/>
     <use xlink:href="#CMR17-61" transform="translate(494.115542 0)scale(0.996264)"/>
     <use xlink:href="#CMR17-6e" transform="translate(539.806019 0)scale(0.996264)"/>
     <use xlink:href="#CMR17-63" transform="translate(590.701389 0)scale(0.996264)"/>
     <use xlink:href="#CMR17-65" transform="translate(631.187049 0)scale(0.996264)"/>
     <use xlink:href="#CMR17-42" transform="translate(701.748676 0)scale(0.996264)"/>
     <use xlink:href="#CMR17-65" transform="translate(766.937431 0)scale(0.996264)"/>
     <use xlink:href="#CMR17-74" transform="translate(807.423091 0)scale(0.996264)"/>
     <use xlink:href="#CMR17-77" transform="translate(840.101405 0)scale(0.996264)"/>
     <use xlink:href="#CMR17-65" transform="translate(904.008832 0)scale(0.996264)"/>
     <use xlink:href="#CMR17-65" transform="translate(944.494492 0)scale(0.996264)"/>
     <use xlink:href="#CMR17-6e" transform="translate(984.980153 0)scale(0.996264)"/>
     <use xlink:href="#CMR17-52" transform="translate(1065.951489 0)scale(0.996264)"/>
     <use xlink:href="#CMR17-65" transform="translate(1133.742591 0)scale(0.996264)"/>
     <use xlink:href="#CMR17-61" transform="translate(1174.228251 0)scale(0.996264)"/>
     <use xlink:href="#CMR17-63" transform="translate(1219.918728 0)scale(0.996264)"/>
     <use xlink:href="#CMR17-68" transform="translate(1257.801935 0)scale(0.996264)"/>
     <use xlink:href="#CMR17-65" transform="translate(1308.697305 0)scale(0.996264)"/>
     <use xlink:href="#CMR17-73" transform="translate(1349.182965 0)scale(0.996264)"/>
    </g>
   </g>
   <g id="text_9">
    <!-- 5 -->
    <g style="fill: #ffffff" transform="translate(331.589332 200.34666)scale(0.1 -0.1)">
     <use xlink:href="#CMR17-35" transform="scale(0.996264)"/>
    </g>
   </g>
  </g>
  <g id="axes_7">
   <g id="patch_32">
    <path d="M 299.52 181.44 
L 368.64 181.44 
L 368.64 155.52 
L 299.52 155.52 
z
" style="fill: #f0852d"/>
   </g>
   <g id="matplotlib.axis_13"/>
   <g id="matplotlib.axis_14"/>
   <g id="patch_33">
    <path d="M 299.52 181.44 
L 299.52 155.52 
" style="fill: none"/>
   </g>
   <g id="patch_34">
    <path d="M 368.64 181.44 
L 368.64 155.52 
" style="fill: none"/>
   </g>
   <g id="patch_35">
    <path d="M 299.52 181.44 
L 368.64 181.44 
" style="fill: none"/>
   </g>
   <g id="patch_36">
    <path d="M 299.52 155.52 
L 368.64 155.52 
" style="fill: none"/>
   </g>
   <g id="text_10">
    <!-- Propagation -->
    <g style="fill: #ffffff" transform="translate(307.429862 170.97066)scale(0.1 -0.1)">
     <defs>
      <path id="CMR17-70" d="M 1408 -1063 
C 998 -1063 973 -1037 973 -789 
L 973 402 
C 1158 134 1427 -38 1766 -38 
C 2406 -38 3053 523 3053 1388 
C 3053 2191 2496 2802 1837 2802 
C 1453 2802 1139 2592 960 2338 
L 960 2802 
L 198 2732 
L 198 2567 
C 576 2567 634 2528 634 2223 
L 634 -789 
C 634 -1031 608 -1063 198 -1063 
L 198 -1228 
C 352 -1216 634 -1216 800 -1216 
C 966 -1216 1254 -1216 1408 -1228 
L 1408 -1063 
z
M 973 2012 
C 973 2102 973 2235 1222 2471 
C 1254 2497 1472 2688 1792 2688 
C 2259 2688 2643 2108 2643 1382 
C 2643 656 2234 64 1728 64 
C 1498 64 1248 172 1056 472 
C 973 612 973 650 973 752 
L 973 2012 
z
" transform="scale(0.015625)"/>
     </defs>
     <use xlink:href="#CMR17-50" transform="scale(0.996264)"/>
     <use xlink:href="#CMR17-72" transform="translate(62.586301 0)scale(0.996264)"/>
     <use xlink:href="#CMR17-6f" transform="translate(97.867068 0)scale(0.996264)"/>
     <use xlink:href="#CMR17-70" transform="translate(143.557545 0)scale(0.996264)"/>
     <use xlink:href="#CMR17-61" transform="translate(194.452915 0)scale(0.996264)"/>
     <use xlink:href="#CMR17-67" transform="translate(240.143392 0)scale(0.996264)"/>
     <use xlink:href="#CMR17-61" transform="translate(285.833869 0)scale(0.996264)"/>
     <use xlink:href="#CMR17-74" transform="translate(331.524347 0)scale(0.996264)"/>
     <use xlink:href="#CMR17-69" transform="translate(366.805114 0)scale(0.996264)"/>
     <use xlink:href="#CMR17-6f" transform="translate(391.676173 0)scale(0.996264)"/>
     <use xlink:href="#CMR17-6e" transform="translate(437.36665 0)scale(0.996264)"/>
    </g>
   </g>
  </g>
  <g id="axes_8">
   <g id="patch_37">
    <path d="M 299.52 152.064 
L 368.64 152.064 
L 368.64 126.144 
L 299.52 126.144 
z
" style="fill: #f0852d"/>
   </g>
   <g id="matplotlib.axis_15"/>
   <g id="matplotlib.axis_16"/>
   <g id="patch_38">
    <path d="M 299.52 152.064 
L 299.52 126.144 
" style="fill: none"/>
   </g>
   <g id="patch_39">
    <path d="M 368.64 152.064 
L 368.64 126.144 
" style="fill: none"/>
   </g>
   <g id="patch_40">
    <path d="M 299.52 152.064 
L 368.64 152.064 
" style="fill: none"/>
   </g>
   <g id="patch_41">
    <path d="M 299.52 126.144 
L 368.64 126.144 
" style="fill: none"/>
   </g>
   <g id="text_11">
    <!-- Event Duration -->
    <g style="fill: #ffffff" transform="translate(300.165439 141.59466)scale(0.1 -0.1)">
     <defs>
      <path id="CMR17-75" d="M 1882 2693 
L 1882 2528 
C 2259 2528 2317 2489 2317 2186 
L 2317 1032 
C 2317 500 2029 38 1555 38 
C 1030 38 986 348 986 678 
L 986 2763 
L 211 2693 
L 211 2528 
C 467 2528 640 2528 646 2274 
L 646 1058 
C 646 633 646 361 813 183 
C 896 101 1056 -64 1517 -64 
C 2061 -64 2272 377 2323 506 
L 2330 506 
L 2330 -63 
L 3091 -63 
L 3091 128 
C 2714 128 2656 166 2656 473 
L 2656 2763 
L 1882 2693 
z
" transform="scale(0.015625)"/>
     </defs>
     <use xlink:href="#CMR17-45" transform="scale(0.996264)"/>
     <use xlink:href="#CMR17-76" transform="translate(62.586301 0)scale(0.996264)"/>
     <use xlink:href="#CMR17-65" transform="translate(108.276762 0)scale(0.996264)"/>
     <use xlink:href="#CMR17-6e" transform="translate(148.762423 0)scale(0.996264)"/>
     <use xlink:href="#CMR17-74" transform="translate(197.055339 0)scale(0.996264)"/>
     <use xlink:href="#CMR17-44" transform="translate(262.412073 0)scale(0.996264)"/>
     <use xlink:href="#CMR17-75" transform="translate(332.805629 0)scale(0.996264)"/>
     <use xlink:href="#CMR17-72" transform="translate(383.700999 0)scale(0.996264)"/>
     <use xlink:href="#CMR17-61" transform="translate(418.981766 0)scale(0.996264)"/>
     <use xlink:href="#CMR17-74" transform="translate(464.672243 0)scale(0.996264)"/>
     <use xlink:href="#CMR17-69" transform="translate(499.953011 0)scale(0.996264)"/>
     <use xlink:href="#CMR17-6f" transform="translate(524.82407 0)scale(0.996264)"/>
     <use xlink:href="#CMR17-6e" transform="translate(570.514547 0)scale(0.996264)"/>
    </g>
   </g>
  </g>
  <g id="axes_9">
   <g id="patch_42">
    <path d="M 299.52 122.688 
L 368.64 122.688 
L 368.64 96.768 
L 299.52 96.768 
z
" style="fill: #f0852d"/>
   </g>
   <g id="matplotlib.axis_17"/>
   <g id="matplotlib.axis_18"/>
   <g id="patch_43">
    <path d="M 299.52 122.688 
L 299.52 96.768 
" style="fill: none"/>
   </g>
   <g id="patch_44">
    <path d="M 368.64 122.688 
L 368.64 96.768 
" style="fill: none"/>
   </g>
   <g id="patch_45">
    <path d="M 299.52 122.688 
L 368.64 122.688 
" style="fill: none"/>
   </g>
   <g id="patch_46">
    <path d="M 299.52 96.768 
L 368.64 96.768 
" style="fill: none"/>
   </g>
   <g id="text_12">
    <!-- Discharge -->
    <g style="fill: #ffffff" transform="translate(312.937034 112.21866)scale(0.1 -0.1)">
     <use xlink:href="#CMR17-44" transform="scale(0.996264)"/>
     <use xlink:href="#CMR17-69" transform="translate(70.393556 0)scale(0.996264)"/>
     <use xlink:href="#CMR17-73" transform="translate(95.264614 0)scale(0.996264)"/>
     <use xlink:href="#CMR17-63" transform="translate(131.065952 0)scale(0.996264)"/>
     <use xlink:href="#CMR17-68" transform="translate(168.949159 0)scale(0.996264)"/>
     <use xlink:href="#CMR17-61" transform="translate(219.844528 0)scale(0.996264)"/>
     <use xlink:href="#CMR17-72" transform="translate(265.535005 0)scale(0.996264)"/>
     <use xlink:href="#CMR17-67" transform="translate(300.815773 0)scale(0.996264)"/>
     <use xlink:href="#CMR17-65" transform="translate(346.50625 0)scale(0.996264)"/>
    </g>
   </g>
  </g>
  <g id="axes_10">
   <g id="patch_47">
    <path d="M 156.672 122.688 
L 294.912 122.688 
L 294.912 67.392 
L 156.672 67.392 
z
" style="fill: #333333"/>
   </g>
   <g id="matplotlib.axis_19"/>
   <g id="matplotlib.axis_20"/>
   <g id="patch_48">
    <path d="M 177.408 79.3728 
C 179.241084 79.3728 180.999336 79.081483 182.295522 78.563009 
C 183.591708 78.044534 184.32 77.341234 184.32 76.608 
C 184.32 75.874766 183.591708 75.171466 182.295522 74.652991 
C 180.999336 74.134517 179.241084 73.8432 177.408 73.8432 
C 175.574916 73.8432 173.816664 74.134517 172.520478 74.652991 
C 171.224292 75.171466 170.496 75.874766 170.496 76.608 
C 170.496 77.341234 171.224292 78.044534 172.520478 78.563009 
C 173.816664 79.081483 175.574916 79.3728 177.408 79.3728 
z
" clip-path="url(#pe8a94d0f44)" style="fill: #0000ff; stroke: #000000; stroke-linejoin: miter"/>
   </g>
   <g id="patch_49">
    <path d="M 177.408 88.5888 
C 179.241084 88.5888 180.999336 88.297483 182.295522 87.779009 
C 183.591708 87.260534 184.32 86.557234 184.32 85.824 
C 184.32 85.090766 183.591708 84.387466 182.295522 83.868991 
C 180.999336 83.350517 179.241084 83.0592 177.408 83.0592 
C 175.574916 83.0592 173.816664 83.350517 172.520478 83.868991 
C 171.224292 84.387466 170.496 85.090766 170.496 85.824 
C 170.496 86.557234 171.224292 87.260534 172.520478 87.779009 
C 173.816664 88.297483 175.574916 88.5888 177.408 88.5888 
z
" clip-path="url(#pe8a94d0f44)" style="fill: #333333; stroke: #000000; stroke-linejoin: miter"/>
   </g>
   <g id="patch_50">
    <path d="M 177.408 97.8048 
C 179.241084 97.8048 180.999336 97.513483 182.295522 96.995009 
C 183.591708 96.476534 184.32 95.773234 184.32 95.04 
C 184.32 94.306766 183.591708 93.603466 182.295522 93.084991 
C 180.999336 92.566517 179.241084 92.2752 177.408 92.2752 
C 175.574916 92.2752 173.816664 92.566517 172.520478 93.084991 
C 171.224292 93.603466 170.496 94.306766 170.496 95.04 
C 170.496 95.773234 171.224292 96.476534 172.520478 96.995009 
C 173.816664 97.513483 175.574916 97.8048 177.408 97.8048 
z
" clip-path="url(#pe8a94d0f44)" style="fill: #333333; stroke: #000000; stroke-linejoin: miter"/>
   </g>
   <g id="patch_51">
    <path d="M 177.408 107.0208 
C 179.241084 107.0208 180.999336 106.729483 182.295522 106.211009 
C 183.591708 105.692534 184.32 104.989234 184.32 104.256 
C 184.32 103.522766 183.591708 102.819466 182.295522 102.300991 
C 180.999336 101.782517 179.241084 101.4912 177.408 101.4912 
C 175.574916 101.4912 173.816664 101.782517 172.520478 102.300991 
C 171.224292 102.819466 170.496 103.522766 170.496 104.256 
C 170.496 104.989234 171.224292 105.692534 172.520478 106.211009 
C 173.816664 106.729483 175.574916 107.0208 177.408 107.0208 
z
" clip-path="url(#pe8a94d0f44)" style="fill: #333333; stroke: #000000; stroke-linejoin: miter"/>
   </g>
   <g id="patch_52">
    <path d="M 177.408 116.2368 
C 179.241084 116.2368 180.999336 115.945483 182.295522 115.427009 
C 183.591708 114.908534 184.32 114.205234 184.32 113.472 
C 184.32 112.738766 183.591708 112.035466 182.295522 111.516991 
C 180.999336 110.998517 179.241084 110.7072 177.408 110.7072 
C 175.574916 110.7072 173.816664 110.998517 172.520478 111.516991 
C 171.224292 112.035466 170.496 112.738766 170.496 113.472 
C 170.496 114.205234 171.224292 114.908534 172.520478 115.427009 
C 173.816664 115.945483 175.574916 116.2368 177.408 116.2368 
z
" clip-path="url(#pe8a94d0f44)" style="fill: #333333; stroke: #000000; stroke-linejoin: miter"/>
   </g>
   <g id="patch_53">
    <path d="M 156.672 122.688 
L 156.672 67.392 
" style="fill: none"/>
   </g>
   <g id="patch_54">
    <path d="M 294.912 122.688 
L 294.912 67.392 
" style="fill: none"/>
   </g>
   <g id="patch_55">
    <path d="M 156.672 122.688 
L 294.912 122.688 
" style="fill: none"/>
   </g>
   <g id="patch_56">
    <path d="M 156.672 67.392 
L 294.912 67.392 
" style="fill: none"/>
   </g>
   <g id="text_13">
    <!-- Kilometers -->
    <g style="fill: #ffffff" transform="translate(191.232 79.09866)scale(0.1 -0.1)">
     <defs>
      <path id="CMR17-4b" d="M 2362 2675 
L 3469 3782 
C 3699 4006 3942 4186 4301 4186 
L 4301 4352 
C 4173 4352 4013 4352 3885 4352 
C 3712 4352 3411 4352 3245 4358 
L 3245 4192 
C 3411 4180 3437 4065 3437 4019 
C 3437 3975 3411 3905 3386 3867 
L 1261 1738 
L 1261 3900 
C 1261 4186 1331 4186 1773 4186 
L 1773 4352 
C 1587 4352 1248 4352 1050 4352 
C 851 4352 512 4352 326 4352 
L 326 4186 
C 768 4186 838 4186 838 3899 
L 838 446 
C 838 160 768 160 326 160 
L 326 0 
C 512 0 851 0 1050 0 
C 1248 0 1587 0 1773 0 
L 1773 160 
C 1331 160 1261 160 1261 447 
L 1261 1579 
L 2080 2390 
L 3290 537 
C 3328 473 3373 390 3373 326 
C 3373 160 3194 160 3110 160 
L 3110 0 
C 3315 0 3610 0 3821 0 
C 3974 0 4237 0 4384 -6 
L 4384 160 
C 4077 160 3981 198 3789 493 
L 2362 2675 
z
" transform="scale(0.015625)"/>
      <path id="CMR17-6d" d="M 4326 1933 
C 4326 2252 4269 2790 3507 2790 
C 3072 2790 2771 2496 2656 2151 
L 2650 2151 
C 2573 2676 2195 2790 1837 2790 
C 1331 2790 1069 2400 973 2144 
L 966 2144 
L 966 2790 
L 211 2720 
L 211 2554 
C 589 2554 646 2515 646 2208 
L 646 428 
C 646 184 621 153 211 153 
L 211 -13 
C 365 0 646 0 813 0 
C 979 0 1267 0 1421 -13 
L 1421 153 
C 1011 153 986 178 986 428 
L 986 1658 
C 986 2247 1344 2688 1792 2688 
C 2266 2688 2317 2266 2317 1958 
L 2317 428 
C 2317 184 2291 153 1882 153 
L 1882 -13 
C 2035 0 2317 0 2483 0 
C 2650 0 2938 0 3091 -13 
L 3091 153 
C 2682 153 2656 178 2656 428 
L 2656 1658 
C 2656 2247 3014 2688 3462 2688 
C 3936 2688 3987 2266 3987 1958 
L 3987 428 
C 3987 184 3962 153 3552 153 
L 3552 -13 
C 3706 0 3987 0 4154 0 
C 4320 0 4608 0 4762 -13 
L 4762 153 
C 4352 153 4326 178 4326 428 
L 4326 1933 
z
" transform="scale(0.015625)"/>
     </defs>
     <use xlink:href="#CMR17-4b" transform="scale(0.996264)"/>
     <use xlink:href="#CMR17-69" transform="translate(71.674777 0)scale(0.996264)"/>
     <use xlink:href="#CMR17-6c" transform="translate(96.545836 0)scale(0.996264)"/>
     <use xlink:href="#CMR17-6f" transform="translate(121.416894 0)scale(0.996264)"/>
     <use xlink:href="#CMR17-6d" transform="translate(167.107371 0)scale(0.996264)"/>
     <use xlink:href="#CMR17-65" transform="translate(244.026961 0)scale(0.996264)"/>
     <use xlink:href="#CMR17-74" transform="translate(284.512622 0)scale(0.996264)"/>
     <use xlink:href="#CMR17-65" transform="translate(319.79339 0)scale(0.996264)"/>
     <use xlink:href="#CMR17-72" transform="translate(360.27905 0)scale(0.996264)"/>
     <use xlink:href="#CMR17-73" transform="translate(395.559818 0)scale(0.996264)"/>
    </g>
   </g>
   <g id="text_14">
    <!-- Nautical Miles -->
    <g style="fill: #ffffff" transform="translate(191.232 88.31466)scale(0.1 -0.1)">
     <defs>
      <path id="CMR17-4e" d="M 1312 4250 
C 1267 4320 1261 4320 1139 4320 
L 326 4320 
L 326 4160 
L 448 4160 
C 704 4160 819 4129 838 4122 
L 838 610 
C 838 451 838 153 326 153 
L 326 -13 
C 474 0 742 0 902 0 
C 1062 0 1331 0 1478 -13 
L 1478 153 
C 966 153 966 451 966 610 
L 966 4033 
C 1011 3995 1011 3982 1056 3919 
L 3430 76 
C 3475 0 3494 0 3526 0 
C 3590 0 3590 19 3590 139 
L 3590 3705 
C 3590 3863 3590 4160 4102 4160 
L 4102 4326 
C 3955 4320 3686 4320 3526 4320 
C 3366 4320 3098 4320 2950 4326 
L 2950 4160 
C 3462 4160 3462 3862 3462 3703 
L 3462 763 
L 1312 4250 
z
" transform="scale(0.015625)"/>
      <path id="CMR17-4d" d="M 1338 4224 
C 1299 4320 1293 4320 1158 4320 
L 339 4320 
L 339 4160 
C 781 4160 851 4160 851 3875 
L 851 610 
C 851 451 851 153 339 153 
L 339 -13 
C 486 0 755 0 915 0 
C 1075 0 1344 0 1491 -13 
L 1491 153 
C 979 153 979 451 979 610 
L 979 4135 
L 986 4135 
L 2490 89 
C 2515 25 2528 -13 2579 -13 
C 2630 -13 2643 25 2669 89 
L 4186 4166 
L 4192 4166 
L 4192 438 
C 4192 153 4122 153 3680 153 
L 3680 -13 
C 3853 0 4198 0 4384 0 
C 4570 0 4922 0 5094 -13 
L 5094 153 
C 4653 153 4582 153 4582 438 
L 4582 3875 
C 4582 4160 4653 4160 5094 4160 
L 5094 4320 
L 4282 4320 
C 4147 4320 4141 4314 4102 4218 
L 2720 502 
L 1338 4224 
z
" transform="scale(0.015625)"/>
     </defs>
     <use xlink:href="#CMR17-4e" transform="scale(0.996264)"/>
     <use xlink:href="#CMR17-61" transform="translate(69.07243 0)scale(0.996264)"/>
     <use xlink:href="#CMR17-75" transform="translate(114.762907 0)scale(0.996264)"/>
     <use xlink:href="#CMR17-74" transform="translate(165.658277 0)scale(0.996264)"/>
     <use xlink:href="#CMR17-69" transform="translate(200.939045 0)scale(0.996264)"/>
     <use xlink:href="#CMR17-63" transform="translate(225.810103 0)scale(0.996264)"/>
     <use xlink:href="#CMR17-61" transform="translate(266.295763 0)scale(0.996264)"/>
     <use xlink:href="#CMR17-6c" transform="translate(311.986241 0)scale(0.996264)"/>
     <use xlink:href="#CMR17-4d" transform="translate(366.933265 0)scale(0.996264)"/>
     <use xlink:href="#CMR17-69" transform="translate(451.620206 0)scale(0.996264)"/>
     <use xlink:href="#CMR17-6c" transform="translate(476.491264 0)scale(0.996264)"/>
     <use xlink:href="#CMR17-65" transform="translate(501.362323 0)scale(0.996264)"/>
     <use xlink:href="#CMR17-73" transform="translate(541.847983 0)scale(0.996264)"/>
    </g>
   </g>
   <g id="text_15">
    <!-- Degrees -->
    <g style="fill: #ffffff" transform="translate(191.232 97.53066)scale(0.1 -0.1)">
     <use xlink:href="#CMR17-44" transform="scale(0.996264)"/>
     <use xlink:href="#CMR17-65" transform="translate(70.393556 0)scale(0.996264)"/>
     <use xlink:href="#CMR17-67" transform="translate(110.879216 0)scale(0.996264)"/>
     <use xlink:href="#CMR17-72" transform="translate(156.569693 0)scale(0.996264)"/>
     <use xlink:href="#CMR17-65" transform="translate(191.850461 0)scale(0.996264)"/>
     <use xlink:href="#CMR17-65" transform="translate(232.336122 0)scale(0.996264)"/>
     <use xlink:href="#CMR17-73" transform="translate(272.821782 0)scale(0.996264)"/>
    </g>
   </g>
   <g id="text_16">
    <!-- Radians -->
    <g style="fill: #ffffff" transform="translate(191.232 106.74666)scale(0.1 -0.1)">
     <use xlink:href="#CMR17-52" transform="scale(0.996264)"/>
     <use xlink:href="#CMR17-61" transform="translate(67.791102 0)scale(0.996264)"/>
     <use xlink:href="#CMR17-64" transform="translate(113.481579 0)scale(0.996264)"/>
     <use xlink:href="#CMR17-69" transform="translate(164.376949 0)scale(0.996264)"/>
     <use xlink:href="#CMR17-61" transform="translate(189.248007 0)scale(0.996264)"/>
     <use xlink:href="#CMR17-6e" transform="translate(234.938484 0)scale(0.996264)"/>
     <use xlink:href="#CMR17-73" transform="translate(285.833854 0)scale(0.996264)"/>
    </g>
   </g>
   <g id="text_17">
    <!-- Miles -->
    <g style="fill: #ffffff" transform="translate(191.232 115.96266)scale(0.1 -0.1)">
     <use xlink:href="#CMR17-4d" transform="scale(0.996264)"/>
     <use xlink:href="#CMR17-69" transform="translate(84.686941 0)scale(0.996264)"/>
     <use xlink:href="#CMR17-6c" transform="translate(109.557999 0)scale(0.996264)"/>
     <use xlink:href="#CMR17-65" transform="translate(134.429058 0)scale(0.996264)"/>
     <use xlink:href="#CMR17-73" transform="translate(174.914718 0)scale(0.996264)"/>
    </g>
   </g>
  </g>
  <g id="axes_11">
   <g id="patch_57">
    <path d="M 156.672 328.32 
L 294.912 328.32 
L 294.912 273.024 
L 156.672 273.024 
z
" style="fill: #333333"/>
   </g>
   <g id="matplotlib.axis_21"/>
   <g id="matplotlib.axis_22"/>
   <g id="patch_58">
    <path d="M 163.584 290.304 
L 180.864 290.304 
L 180.864 283.392 
L 163.584 283.392 
z
" clip-path="url(#p27ae5cb6bb)" style="fill: #333333; stroke: #000000; stroke-linejoin: miter"/>
   </g>
   <g id="patch_59">
    <path d="M 163.584 304.128 
L 180.864 304.128 
L 180.864 297.216 
L 163.584 297.216 
z
" clip-path="url(#p27ae5cb6bb)" style="fill: #333333; stroke: #000000; stroke-linejoin: miter"/>
   </g>
   <g id="patch_60">
    <path d="M 163.584 317.952 
L 180.864 317.952 
L 180.864 311.04 
L 163.584 311.04 
z
" clip-path="url(#p27ae5cb6bb)" style="fill: #333333; stroke: #000000; stroke-linejoin: miter"/>
   </g>
   <g id="patch_61">
    <path d="M 156.672 328.32 
L 156.672 273.024 
" style="fill: none"/>
   </g>
   <g id="patch_62">
    <path d="M 294.912 328.32 
L 294.912 273.024 
" style="fill: none"/>
   </g>
   <g id="patch_63">
    <path d="M 156.672 328.32 
L 294.912 328.32 
" style="fill: none"/>
   </g>
   <g id="patch_64">
    <path d="M 156.672 273.024 
L 294.912 273.024 
" style="fill: none"/>
   </g>
   <g id="text_18">
    <!-- Select Multiple -->
    <g style="fill: #ffffff" transform="translate(191.232 289.33866)scale(0.1 -0.1)">
     <use xlink:href="#CMR17-53" transform="scale(0.996264)"/>
     <use xlink:href="#CMR17-65" transform="translate(50.89537 0)scale(0.996264)"/>
     <use xlink:href="#CMR17-6c" transform="translate(91.38103 0)scale(0.996264)"/>
     <use xlink:href="#CMR17-65" transform="translate(116.252089 0)scale(0.996264)"/>
     <use xlink:href="#CMR17-63" transform="translate(156.737749 0)scale(0.996264)"/>
     <use xlink:href="#CMR17-74" transform="translate(197.22341 0)scale(0.996264)"/>
     <use xlink:href="#CMR17-4d" transform="translate(262.580144 0)scale(0.996264)"/>
     <use xlink:href="#CMR17-75" transform="translate(347.267084 0)scale(0.996264)"/>
     <use xlink:href="#CMR17-6c" transform="translate(398.162454 0)scale(0.996264)"/>
     <use xlink:href="#CMR17-74" transform="translate(423.033513 0)scale(0.996264)"/>
     <use xlink:href="#CMR17-69" transform="translate(458.31428 0)scale(0.996264)"/>
     <use xlink:href="#CMR17-70" transform="translate(483.185339 0)scale(0.996264)"/>
     <use xlink:href="#CMR17-6c" transform="translate(534.080709 0)scale(0.996264)"/>
     <use xlink:href="#CMR17-65" transform="translate(558.951767 0)scale(0.996264)"/>
    </g>
   </g>
   <g id="text_19">
    <!-- Open in New Window -->
    <g style="fill: #ffffff" transform="translate(191.232 303.16266)scale(0.1 -0.1)">
     <defs>
      <path id="CMR17-4f" d="M 4307 2135 
C 4307 3437 3366 4416 2304 4416 
C 1216 4416 294 3424 294 2135 
C 294 845 1229 -128 2298 -128 
C 3392 -128 4307 864 4307 2135 
z
M 2304 -13 
C 1574 -13 781 711 781 2217 
C 781 3716 1651 4301 2298 4301 
C 2976 4301 3821 3698 3821 2217 
C 3821 686 3008 -13 2304 -13 
z
" transform="scale(0.015625)"/>
      <path id="CMR17-57" d="M 5523 3764 
C 5581 3936 5677 4160 6048 4160 
L 6048 4326 
C 5939 4326 5715 4326 5600 4326 
C 5440 4326 5158 4326 5005 4332 
L 5005 4160 
C 5293 4160 5414 4000 5414 3847 
C 5414 3802 5408 3777 5382 3707 
L 4390 555 
L 3347 3873 
C 3328 3937 3322 3963 3322 3988 
C 3322 4160 3603 4160 3725 4160 
L 3725 4326 
C 3539 4326 3219 4326 3021 4326 
C 2861 4326 2573 4326 2426 4332 
L 2426 4160 
C 2720 4160 2797 4141 2861 4027 
C 2886 3969 2989 3638 2989 3619 
C 2989 3593 2976 3555 2970 3536 
L 2029 561 
L 986 3867 
C 954 3957 954 3969 954 3982 
C 954 4160 1235 4160 1363 4160 
L 1363 4326 
C 1178 4326 858 4326 659 4326 
C 493 4326 211 4326 58 4332 
L 58 4160 
C 442 4160 467 4122 531 3918 
L 1779 -20 
C 1811 -115 1811 -128 1869 -128 
C 1920 -128 1939 -115 1965 -26 
L 3053 3433 
L 4141 -26 
C 4166 -115 4186 -128 4237 -128 
C 4294 -128 4294 -115 4326 -20 
L 5523 3764 
z
" transform="scale(0.015625)"/>
     </defs>
     <use xlink:href="#CMR17-4f" transform="scale(0.996264)"/>
     <use xlink:href="#CMR17-70" transform="translate(71.714788 0)scale(0.996264)"/>
     <use xlink:href="#CMR17-65" transform="translate(125.212597 0)scale(0.996264)"/>
     <use xlink:href="#CMR17-6e" transform="translate(165.698257 0)scale(0.996264)"/>
     <use xlink:href="#CMR17-69" transform="translate(246.669594 0)scale(0.996264)"/>
     <use xlink:href="#CMR17-6e" transform="translate(271.540652 0)scale(0.996264)"/>
     <use xlink:href="#CMR17-4e" transform="translate(352.511988 0)scale(0.996264)"/>
     <use xlink:href="#CMR17-65" transform="translate(421.584418 0)scale(0.996264)"/>
     <use xlink:href="#CMR17-77" transform="translate(462.070078 0)scale(0.996264)"/>
     <use xlink:href="#CMR17-57" transform="translate(558.655925 0)scale(0.996264)"/>
     <use xlink:href="#CMR17-69" transform="translate(653.752575 0)scale(0.996264)"/>
     <use xlink:href="#CMR17-6e" transform="translate(678.623634 0)scale(0.996264)"/>
     <use xlink:href="#CMR17-64" transform="translate(729.519003 0)scale(0.996264)"/>
     <use xlink:href="#CMR17-6f" transform="translate(780.414373 0)scale(0.996264)"/>
     <use xlink:href="#CMR17-77" transform="translate(823.502396 0)scale(0.996264)"/>
    </g>
   </g>
   <g id="text_20">
    <!-- Skip Rerender -->
    <g style="fill: #ffffff" transform="translate(191.232 316.98666)scale(0.1 -0.1)">
     <defs>
      <path id="CMR17-6b" d="M 1670 1673 
C 1664 1686 1632 1724 1632 1743 
C 1632 1756 2086 2171 2144 2222 
C 2509 2528 2739 2560 2906 2560 
L 2906 2733 
C 2867 2733 2854 2733 2848 2720 
L 2534 2720 
C 2355 2720 2080 2720 1907 2733 
L 1907 2566 
C 1997 2559 2061 2508 2061 2419 
C 2061 2291 1933 2170 1926 2170 
L 960 1289 
L 960 4396 
L 198 4326 
L 198 4160 
C 576 4160 634 4122 634 3817 
L 634 426 
C 634 184 608 153 198 153 
L 198 -13 
C 352 0 634 0 794 0 
C 954 0 1235 0 1389 -13 
L 1389 153 
C 979 153 954 178 954 428 
L 954 1130 
L 1395 1532 
L 2042 574 
C 2118 459 2182 369 2182 286 
C 2182 172 2067 153 1990 153 
L 1990 -13 
C 2144 0 2419 0 2579 0 
C 2694 0 2931 0 3040 0 
L 3040 153 
C 2739 153 2669 210 2477 491 
L 1670 1673 
z
" transform="scale(0.015625)"/>
     </defs>
     <use xlink:href="#CMR17-53" transform="scale(0.996264)"/>
     <use xlink:href="#CMR17-6b" transform="translate(50.89537 0)scale(0.996264)"/>
     <use xlink:href="#CMR17-69" transform="translate(99.188286 0)scale(0.996264)"/>
     <use xlink:href="#CMR17-70" transform="translate(124.059344 0)scale(0.996264)"/>
     <use xlink:href="#CMR17-52" transform="translate(205.03068 0)scale(0.996264)"/>
     <use xlink:href="#CMR17-65" transform="translate(272.821782 0)scale(0.996264)"/>
     <use xlink:href="#CMR17-72" transform="translate(313.307443 0)scale(0.996264)"/>
     <use xlink:href="#CMR17-65" transform="translate(348.58821 0)scale(0.996264)"/>
     <use xlink:href="#CMR17-6e" transform="translate(389.073871 0)scale(0.996264)"/>
     <use xlink:href="#CMR17-64" transform="translate(439.969241 0)scale(0.996264)"/>
     <use xlink:href="#CMR17-65" transform="translate(490.86461 0)scale(0.996264)"/>
     <use xlink:href="#CMR17-72" transform="translate(531.350271 0)scale(0.996264)"/>
    </g>
   </g>
  </g>
  <g id="axes_12">
   <g id="patch_65">
    <path d="M 94.752 259.2 
L 99.936 259.2 
L 99.936 41.472 
L 94.752 41.472 
z
" clip-path="url(#p5fffb918f4)" style="fill: #d3d3d3"/>
   </g>
   <g id="patch_66">
    <path d="M 94.752 259.2 
L 94.752 150.336 
L 99.936 150.336 
L 99.936 259.2 
z
" clip-path="url(#p5fffb918f4)" style="fill: #0000ff"/>
   </g>
   <g id="line2d_1">
    <path d="M 92.16 150.336 
L 102.528 150.336 
" clip-path="url(#p0e7ef93b45)" style="fill: none; stroke: #ff0000; stroke-linecap: round"/>
   </g>
   <g id="line2d_2">
    <defs>
     <path id="mf1b6863bc2" d="M 0 5 
C 1.326016 5 2.597899 4.473168 3.535534 3.535534 
C 4.473168 2.597899 5 1.326016 5 0 
C 5 -1.326016 4.473168 -2.597899 3.535534 -3.535534 
C 2.597899 -4.473168 1.326016 -5 0 -5 
C -1.326016 -5 -2.597899 -4.473168 -3.535534 -3.535534 
C -4.473168 -2.597899 -5 -1.326016 -5 0 
C -5 1.326016 -4.473168 2.597899 -3.535534 3.535534 
C -2.597899 4.473168 -1.326016 5 0 5 
z
" style="stroke: #bfbfbf"/>
    </defs>
    <g>
     <use xlink:href="#mf1b6863bc2" x="97.344" y="150.336" style="fill: #ffffff; stroke: #bfbfbf"/>
    </g>
   </g>
   <g id="text_21">
    <!-- Number of Downstream Rivers -->
    <g style="fill: #ffffff" transform="translate(29.860841 35.180262)scale(0.1 -0.1)">
     <defs>
      <path id="CMR17-62" d="M 960 4396 
L 198 4326 
L 198 4160 
C 576 4160 634 4122 634 3817 
L 634 -13 
L 749 -13 
L 934 441 
C 1120 141 1395 -64 1766 -64 
C 2406 -64 3053 500 3053 1370 
C 3053 2188 2477 2790 1830 2790 
C 1434 2790 1152 2579 960 2330 
L 960 4396 
z
M 973 2004 
C 973 2118 973 2138 1062 2272 
C 1312 2657 1670 2688 1792 2688 
C 1984 2688 2643 2585 2643 1376 
C 2643 108 1888 38 1734 38 
C 1536 38 1248 114 1043 486 
C 973 608 973 621 973 735 
L 973 2004 
z
" transform="scale(0.015625)"/>
     </defs>
     <use xlink:href="#CMR17-4e" transform="scale(0.996264)"/>
     <use xlink:href="#CMR17-75" transform="translate(69.07243 0)scale(0.996264)"/>
     <use xlink:href="#CMR17-6d" transform="translate(119.9678 0)scale(0.996264)"/>
     <use xlink:href="#CMR17-62" transform="translate(194.284936 0)scale(0.996264)"/>
     <use xlink:href="#CMR17-65" transform="translate(247.782744 0)scale(0.996264)"/>
     <use xlink:href="#CMR17-72" transform="translate(288.268404 0)scale(0.996264)"/>
     <use xlink:href="#CMR17-6f" transform="translate(353.625139 0)scale(0.996264)"/>
     <use xlink:href="#CMR17-66" transform="translate(399.315616 0)scale(0.996264)"/>
     <use xlink:href="#CMR17-44" transform="translate(456.865095 0)scale(0.996264)"/>
     <use xlink:href="#CMR17-6f" transform="translate(527.25865 0)scale(0.996264)"/>
     <use xlink:href="#CMR17-77" transform="translate(570.346674 0)scale(0.996264)"/>
     <use xlink:href="#CMR17-6e" transform="translate(636.856554 0)scale(0.996264)"/>
     <use xlink:href="#CMR17-73" transform="translate(687.751924 0)scale(0.996264)"/>
     <use xlink:href="#CMR17-74" transform="translate(723.553262 0)scale(0.996264)"/>
     <use xlink:href="#CMR17-72" transform="translate(758.834029 0)scale(0.996264)"/>
     <use xlink:href="#CMR17-65" transform="translate(794.114797 0)scale(0.996264)"/>
     <use xlink:href="#CMR17-61" transform="translate(834.600458 0)scale(0.996264)"/>
     <use xlink:href="#CMR17-6d" transform="translate(880.290935 0)scale(0.996264)"/>
     <use xlink:href="#CMR17-52" transform="translate(987.286491 0)scale(0.996264)"/>
     <use xlink:href="#CMR17-69" transform="translate(1055.077593 0)scale(0.996264)"/>
     <use xlink:href="#CMR17-76" transform="translate(1079.948651 0)scale(0.996264)"/>
     <use xlink:href="#CMR17-65" transform="translate(1125.639113 0)scale(0.996264)"/>
     <use xlink:href="#CMR17-72" transform="translate(1166.124774 0)scale(0.996264)"/>
     <use xlink:href="#CMR17-73" transform="translate(1201.405542 0)scale(0.996264)"/>
    </g>
   </g>
   <g id="text_22">
    <!-- $\mathdefault{5}$ -->
    <g style="fill: #ffffff" transform="translate(94.853332 270.473058)scale(0.1 -0.1)">
     <use xlink:href="#CMR17-35" transform="scale(0.996264)"/>
    </g>
   </g>
  </g>
 </g>
 <defs>
  <clipPath id="pe8a94d0f44">
   <rect x="156.672" y="67.392" width="138.24" height="55.296"/>
  </clipPath>
  <clipPath id="p27ae5cb6bb">
   <rect x="156.672" y="273.024" width="138.24" height="55.296"/>
  </clipPath>
  <clipPath id="p5fffb918f4">
   <rect x="92.16" y="41.472" width="10.368" height="217.728"/>
  </clipPath>
  <clipPath id="p0e7ef93b45">
   <path d="M 94.752 259.2 
L 99.936 259.2 
L 99.936 41.472 
L 94.752 41.472 
z
"/>
  </clipPath>
 </defs>
</svg>
